**ABCDEFGHIJKLMNOPQRSTUVWXYZabcdefghijklmnopqrstuvwxyz**************************
**PARASOLID !"#$%&'()*+,-./:;<=>?@[\]^_`{|}~0123456789**************************
**PART1;
MC=AMD64;
MC_MODEL=Intel64 Family 6 Model 78 Stepping 3, GenuineIntel;
MC_ID=unknown;
OS=Windows_NT;
OS_RELEASE=unknown;
FRU=Parasolid Version 31.1, build 278,  7-15-2019;
APPL=SOLIDWORKS 2020-2019269;
SITE=;
USER=unknown;
FORMAT=text;
GUISE=transmit;
KEY=1;
FILE=1.x_t;
DATE=Sun Aug  8 16:02:26 2021;
**PART2;
SCH=SCH_3101278_31100;
USFLD_SIZE=0;
**PART3;
**END_OF_HEADER*****************************************************************
T51 : TRANSMIT FILE created by modeller version 310127823 SCH_3101278_31100_1300
6222 0 12 34 CCCCCCI4 mesh1006 0 I8 polyline1008 0 CCCCCCCDI5 owner1040 0 CCCCCC
I13 boundary_mesh1006 0 I17 boundary_polyline1008 0 CCCA16 index_map_offset0 0 1
 dA9 index_map82 0 A17 node_id_index_map82 0 A20 schema_embedding_map82 0 A5 chi
ld12 0 A14 lowest_node_id0 0 1 dA16 mesh_offset_data206 0 Z1 636 2 3 0 0 0 0 0 0
 1e3 1e-8 0 4 0 1 0 1 1 5 6 7 8 0 0 9 10 11 0 0 0 0 0 0 0 81 255 2 2 620 12 1 13
 0 0 0 0 14 70 11 CI9 list_type0 0 1 uI10 notransmit0 0 1 lCCCDCCDI12 finger_ind
ex0 0 1 dI12 finger_block1012 0 CZ3 0 4 T1 0 0 9 20 1 15 15 13 255 5 183 0 1 0 1
6 0 0 17 0 51 255 6 174 0 16 18 0 0 --3595300102426075e-33 -.1157939029005204 .0
3616599432735255 0 0 -1 .03048 -1 0 0 30 255 7 182 0 10 19 0 0 +.027307127073199
15 -.1293346270690484 .03616599432735255 0 0 -1 29 255 8 135 0 20 21 0 -.0273071
2707319915 -.1293346270690484 -.01717400567264745 19 8 CCCCCCCA5 owner12 0 Z9 61
 0 1 17 0 22 V0 16 255 10 150 0 ?23 0 24 7 0 0 1 18 255 11 58 0 25 0 26 27 ?1 17
 255 25 0 28 29 30 11 31 32 0 33 +18 26 55 0 30 11 34 35 ?1 29 27 60 0 11 35 36
 -.02730712707319915 -.1293346270690484 .03616599432735255 29 35 57 0 26 37 27 -
.0847255913213908 -.0135407241685285 .03616599432735255 29 36 142 0 38 27 39 .02
730712707319915 -.1293346270690484 -.01717400567264745 18 38 125 0 40 41 0 36 ?1
 29 39 141 0 41 36 42 .0847255913213908 -.0135407241685285 -.01717400567264745 1
8 41 124 0 43 44 38 39 ?1 29 42 140 0 44 39 45 .0847255913213908 .01354072416852
85 -.01717400567264745 18 44 123 0 46 47 41 42 ?1 29 45 139 0 47 42 48 .02730712
707319915 .1293346270690484 -.01717400567264745 18 47 122 0 49 50 44 45 ?1 29 48
 138 0 50 45 51 -.02730712707319915 .1293346270690484 -.01717400567264745 18 50
 121 0 52 53 47 48 ?1 29 51 137 0 53 48 21 -.0847255913213908 .0135407241685285
 -.01717400567264745 18 53 120 0 54 55 50 51 ?1 29 21 136 0 55 51 8 -.0847255913
213908 -.0135407241685285 -.01717400567264745 18 55 119 0 56 20 53 21 ?1 17 56 0
 57 58 59 55 60 61 0 62 +18 20 118 0 63 64 55 8 ?1 17 63 0 65 33 62 20 66 67 0 6
8 +18 64 37 0 69 70 20 71 ?1 17 69 0 72 23 73 64 74 75 0 29 -18 70 40 0 74 76 64
 77 ?1 29 71 39 0 64 0 77 .02730712707319915 -.1293346270690484 .036165994327352
55 29 77 42 0 70 71 78 .0847255913213908 -.0135407241685285 .03616599432735255 2
9 78 45 0 76 77 79 .0847255913213908 .0135407241685285 .03616599432735255 18 76
 43 0 80 81 70 78 ?1 29 79 48 0 81 78 82 .02730712707319915 .1293346270690484 .0
3616599432735255 18 81 46 0 83 84 76 79 ?1 29 82 51 0 84 79 37 -.027307127073199
15 .1293346270690484 .03616599432735255 18 84 49 0 85 34 81 82 ?1 29 37 54 0 34
 82 35 -.0847255913213908 .0135407241685285 .03616599432735255 18 34 52 0 86 26
 84 37 ?1 17 86 0 28 30 85 34 87 88 0 89 +15 255 28 4 0 29 90 0 17 30 0 28 25 86
 26 91 92 0 58 +17 85 0 28 86 83 84 93 94 0 95 +17 87 0 96 97 89 84 86 88 0 0 -1
6 88 25 0 ?86 92 94 98 0 0 1 17 89 0 96 87 54 34 59 99 0 91 -15 96 155 0 54 100
 0 17 54 0 96 89 97 53 101 102 0 59 +17 59 0 57 56 91 53 89 99 0 60 +16 99 145 0
 ?59 103 104 105 0 0 1 17 91 0 57 59 58 34 30 92 0 0 -15 57 153 0 56 106 0 17 58
 0 57 91 56 26 62 104 0 31 -16 92 29 0 ?30 32 88 107 0 0 1 16 32 33 0 ?25 108 92
 109 0 0 1 31 255 107 31 0 92 98 109 0 +-.057418464248192 -236553337464291e-32 .
03616599432735255 0 0 1 1 0 0 .03048 30 98 27 0 88 110 107 0 +-.0847255913213908
 .0135407241685285 .03616599432735255 -.444249480594763 -.895903119199439 0 30 1
09 35 0 32 107 111 0 +-.0847255913213908 -.0135407241685285 .03616599432735255 .
444249480594763 -.895903119199439 0 31 111 134 0 112 109 113 0 +-359530010242607
5e-33 -.1157939029005204 -.01717400567264745 0 0 1 1 0 0 .03048 16 112 114 0 ?11
4 115 116 111 0 0 1 30 113 133 0 115 111 117 0 +.0847255913213908 -.013540724168
5285 -.01717400567264745 .444249480594763 .895903119199439 0 16 115 110 0 ?43 11
8 112 113 0 0 1 31 117 132 0 118 113 119 0 +.057418464248192 -2260510242532185e-
33 -.01717400567264745 0 0 1 -1 0 0 .03048 16 118 106 0 ?46 120 115 117 0 0 1 30
 119 131 0 120 117 121 0 +.02730712707319915 .1293346270690484 -.017174005672647
45 -.444249480594763 .895903119199439 0 16 120 102 0 ?49 122 118 119 0 0 1 31 12
1 130 0 122 119 123 0 +-1469721234320446e-33 .1157939029005204 -.017174005672647
45 0 0 1 -1 0 0 .03048 16 122 98 0 ?52 102 120 121 0 0 1 30 123 129 0 102 121 12
4 0 +-.0847255913213908 .0135407241685285 -.01717400567264745 -.444249480594763
 -.895903119199439 0 16 102 94 0 ?54 61 122 123 0 0 1 31 124 128 0 61 123 125 0
 +-.057418464248192 -236553337464291e-32 -.01717400567264745 0 0 1 1 0 0 .03048
 16 61 90 0 ?56 67 102 124 0 0 1 30 125 127 0 67 124 126 0 +-.0847255913213908 -
.0135407241685285 -.01717400567264745 .444249480594763 -.895903119199439 0 16 67
 86 0 ?63 127 61 125 0 0 1 30 126 175 0 108 125 128 0 +-.02730712707319915 -.129
3346270690484 .03616599432735255 0 0 -1 16 108 143 0 ?68 104 32 126 0 0 1 30 128
 176 0 104 126 105 0 +-.0847255913213908 -.0135407241685285 .03616599432735255 0
 0 -1 16 104 144 0 ?62 99 108 128 0 0 1 30 105 177 0 99 128 129 0 +-.08472559132
13908 .0135407241685285 .03616599432735255 0 0 -1 30 129 178 0 103 105 130 0 +-.
02730712707319915 .1293346270690484 .03616599432735255 0 0 -1 16 103 146 0 ?97 1
31 99 129 0 0 1 30 130 179 0 131 129 132 0 +.02730712707319915 .1293346270690484
 .03616599432735255 0 0 -1 16 131 147 0 ?133 134 103 130 0 0 1 30 132 180 0 134
 130 19 0 +.0847255913213908 .0135407241685285 .03616599432735255 0 0 -1 16 134
 148 0 ?135 24 131 132 0 0 1 30 19 181 0 24 132 7 0 +.0847255913213908 -.0135407
241685285 .03616599432735255 0 0 -1 16 24 149 0 ?136 10 134 19 0 0 1 17 136 0 13
7 46 138 41 73 24 0 139 +15 137 161 0 46 140 0 17 46 0 137 141 136 44 139 118 0
 135 +17 138 0 137 136 141 70 80 142 0 0 -17 73 0 72 69 43 70 136 24 0 138 -17 1
39 0 143 40 144 41 46 118 0 0 -15 143 85 0 145 146 0 17 40 0 143 145 139 38 43 1
15 0 23 -17 144 0 143 139 147 44 49 120 0 0 -17 147 0 143 144 101 47 52 122 0 0
 -17 49 0 148 149 135 47 144 120 0 133 +15 148 159 0 49 150 0 17 149 0 148 151 4
9 81 133 131 0 93 -17 135 0 148 49 151 44 141 134 0 144 +17 133 0 152 52 93 47 1
49 131 0 147 +15 152 157 0 52 153 0 17 52 0 152 95 133 50 147 122 0 97 +17 93 0
 152 133 95 81 85 94 0 0 -17 95 0 152 93 52 84 97 103 0 87 -16 94 21 0 ?85 88 15
4 110 0 0 1 16 154 17 0 ?83 94 142 155 0 0 1 31 110 23 0 94 155 98 0 +-146972123
4320446e-33 .1157939029005204 .03616599432735255 0 0 1 -1 0 0 .03048 30 155 19 0
 154 156 110 0 +.02730712707319915 .1293346270690484 .03616599432735255 -.444249
480594763 .895903119199439 0 31 156 15 0 142 157 155 0 +.057418464248192 -226051
0242532185e-33 .03616599432735255 0 0 1 -1 0 0 .03048 16 142 13 0 ?80 154 75 156
 0 0 1 30 157 11 0 75 158 156 0 +.0847255913213908 -.0135407241685285 .036165994
32735255 .444249480594763 .895903119199439 0 16 75 9 0 ?74 142 127 157 0 0 1 31
 158 7 0 127 159 157 0 +-3595300102426075e-33 -.1157939029005204 .03616599432735
255 0 0 1 1 0 0 .03048 16 127 5 0 ?29 75 67 158 0 0 1 31 159 280 0 160 161 158 0
 +-3595300102426075e-33 -2260510242532185e-33 .03616599432735255 0 0 1 1 0 0 .04
027802454417735 16 160 261 0 ?162 116 163 159 0 0 1 31 161 281 0 116 164 159 0 +
-3595300102426075e-33 -2260510242532185e-33 .02092599432735255 0 0 1 1 0 0 .0402
7802454417735 16 116 258 0 ?165 112 160 161 0 0 1 31 164 452 0 166 167 161 0 +-.
04445 154074395550979e-47 -.01717400567264745 0 0 -1 -1 0 0 .0254 16 166 428 0 ?
168 169 0 164 0 0 1 31 167 453 0 169 170 164 0 +-.04445 154074395550979e-47 -.00
1934005672647435 0 0 -1 -1 0 0 .0254 16 169 425 0 ?171 172 166 167 0 0 1 31 170
 454 0 172 173 167 0 +.04445 0 -.01717400567264745 0 0 -1 -1 0 0 .0254 16 172 41
0 0 ?174 163 169 170 0 0 1 31 173 455 0 163 0 170 0 +.04445 0 -.0019340056726474
35 0 0 -1 -1 0 0 .0254 16 163 407 0 ?175 160 172 173 0 0 1 17 175 0 176 175 175
 0 177 163 0 0 +15 176 420 0 175 178 0 17 177 0 179 177 177 0 175 163 0 0 -15 17
9 416 0 177 180 181 14 255 180 413 182 ?178 183 179 5 184 -0 0 178 183 22 15 181
 417 0 174 180 0 17 174 0 181 174 174 0 185 172 0 0 +17 185 0 186 185 185 0 174
 172 0 0 -15 186 401 0 185 146 187 14 146 84 188 ?189 90 186 5 190 -0 0 189 90 2
2 15 187 395 0 191 146 143 17 191 0 187 191 191 0 168 166 0 0 -17 168 0 192 168
 168 0 191 166 0 0 +15 192 435 0 168 193 0 14 193 431 194 ?183 195 196 5 197 -0
 0 183 195 22 81 1 194 623 198 193 199 0 188 200 201 14 183 436 200 ?180 193 202
 5 203 +0 0 180 193 22 14 195 269 204 ?193 189 205 5 206 +0 0 193 189 22 15 196
 434 0 207 193 192 51 197 446 0 193 203 206 0 +-.04445 154074395550979e-47 -.001
934005672647435 0 0 -1 .0254 -1 0 0 13 22 62 0 0 0 0 0 0 9 16 14 16 166 208 ?209
 0 210 5 6 -0 0 209 0 22 81 1 208 626 198 16 211 0 204 212 213 14 209 164 212 ?1
40 16 72 5 18 -0 0 140 16 22 15 210 165 0 114 16 0 17 114 0 210 214 68 38 145 11
2 0 0 +17 214 0 210 215 114 64 23 10 0 0 -17 68 0 210 114 215 20 33 108 0 145 +1
7 145 0 143 66 40 20 114 112 0 0 -17 66 0 143 60 145 55 63 67 0 0 -17 60 0 143 1
01 66 53 56 61 0 0 -17 101 0 143 147 60 50 54 102 0 0 -17 215 0 210 68 214 11 29
 127 0 0 -17 33 0 65 31 63 11 68 108 0 215 -15 65 151 0 63 216 0 17 31 0 65 62 3
3 26 25 32 0 0 -17 62 0 65 63 31 55 58 104 0 66 +14 216 152 217 ?90 106 65 5 218
 -0 0 90 106 22 81 1 217 628 198 216 219 0 212 220 221 14 90 1 220 ?146 216 222
 5 223 +0 0 146 216 22 14 106 154 224 ?216 100 57 5 225 -0 0 216 100 22 50 255 2
18 167 0 216 190 225 0 +-.0847255913213908 -.0135407241685285 .03616599432735255
 .895903119199438 .444249480594763 0 -.444249480594763 .895903119199439 0 50 190
 126 0 146 223 218 0 +-3595300102426075e-33 -.1157939029005204 -.017174005672647
45 0 0 1 1 0 0 51 225 168 0 106 218 226 0 --.057418464248192 -236553337464291e-3
2 .03616599432735255 0 0 -1 .03048 -1 0 0 50 226 169 0 100 225 227 0 +-.08472559
13213908 .0135407241685285 .03616599432735255 .895903119199438 -.444249480594763
 0 .444249480594763 .895903119199439 0 14 100 156 228 ?106 153 96 5 226 -0 0 106
 153 22 51 227 170 0 153 226 229 0 --1469721234320446e-33 .1157939029005204 .036
16599432735255 0 0 -1 .03048 -1 0 0 14 153 158 230 ?100 150 152 5 227 -0 0 100 1
50 22 50 229 171 0 150 227 231 0 +.02730712707319915 .1293346270690484 .03616599
432735255 -.895903119199438 -.444249480594763 0 .444249480594763 -.8959031191994
39 0 14 150 160 232 ?153 140 148 5 229 -0 0 153 140 22 51 231 172 0 140 229 18 0
 -.057418464248192 -2260510242532185e-33 .03616599432735255 0 0 -1 .03048 -1 0 0
 14 140 162 233 ?150 209 137 5 231 -0 0 150 209 22 50 18 173 0 209 231 6 0 +.084
7255913213908 -.0135407241685285 .03616599432735255 -.895903119199438 .444249480
594763 0 -.444249480594763 -.895903119199439 0 81 1 233 634 198 140 234 0 232 23
5 236 80 255 1 198 237 238 9000 1 1 1 1 1 1 1 1 0 FFFFTFTFFFFFFF1 81 1 234 573 2
39 140 0 233 240 241 242 81 1 232 633 198 150 241 0 230 233 243 81 1 235 635 198
 189 244 0 233 245 246 82 255 1 236 1264320645 14 189 264 235 ?195 146 247 5 248
 -0 0 195 146 22 81 1 244 581 239 189 0 235 249 250 251 81 1 245 636 198 178 252
 0 235 0 253 82 1 246 1261895813 14 178 418 245 ?0 180 176 5 254 +0 0 0 180 22 8
1 1 252 586 239 178 0 245 255 0 256 82 1 253 1284112520 80 1 239 0 257 8001 0 0
 0 0 3 5 0 0 0 FFFFTFTFFFFFFF2 81 1 255 585 239 180 0 182 258 252 259 83 255 3 2
56 .792156862745098 .819607843137255 .933333333333333 81 1 182 621 198 180 255 0
 0 188 260 81 1 258 584 239 183 0 200 199 255 261 83 3 259 .792156862745098 .819
607843137255 .933333333333333 81 1 200 624 198 183 258 0 194 204 262 81 1 199 58
3 239 193 0 194 250 258 263 83 3 261 .792156862745098 .819607843137255 .93333333
3333333 81 1 250 582 239 195 0 204 244 199 264 83 3 263 .792156862745098 .819607
843137255 .933333333333333 81 1 204 625 198 195 250 0 200 208 265 83 3 264 .4274
50980392157 .447058823529412 .427450980392157 82 1 265 1265434757 82 1 262 12881
10216 81 1 188 622 198 146 249 0 182 194 266 82 1 260 1286078600 81 1 249 580 23
9 146 0 188 267 244 268 82 1 266 1262354568 81 1 267 579 239 90 0 220 219 249 26
9 83 3 268 .568627450980392 .568627450980392 .588235294117647 81 1 220 629 198 9
0 267 0 217 224 270 81 1 219 578 239 216 0 217 271 267 272 83 3 269 .66666666666
6667 .698039215686275 .768627450980392 81 1 271 577 239 106 0 224 273 219 274 83
 3 272 .568627450980392 .568627450980392 .588235294117647 81 1 224 630 198 106 2
71 0 220 228 275 81 1 273 576 239 100 0 228 276 271 277 83 3 274 .56862745098039
2 .568627450980392 .588235294117647 81 1 228 631 198 100 273 0 224 230 278 81 1
 276 575 239 153 0 230 241 273 279 83 3 277 .568627450980392 .568627450980392 .5
88235294117647 81 1 230 632 198 153 276 0 228 232 280 81 1 241 574 239 150 0 232
 234 276 281 83 3 279 .568627450980392 .568627450980392 .588235294117647 83 3 28
1 .568627450980392 .568627450980392 .588235294117647 82 1 280 1264713861 82 1 27
8 1264844933 82 1 275 1264976005 82 1 270 1262223493 79 255 15 257 SDL/TYSA_COLO
UR50 254 451 0 178 0 184 0 +.04445 0 -.001934005672647435 0 0 -1 -1 0 0 51 184 4
49 0 180 254 203 0 +.04445 0 -.001934005672647435 0 0 -1 .0254 -1 0 0 50 203 448
 0 183 184 197 0 +-.04445 154074395550979e-47 -.001934005672647435 0 0 -1 -1 0 0
 83 3 251 .427450980392157 .447058823529412 .427450980392157 15 247 267 0 282 18
9 283 51 248 277 0 189 206 223 0 +-3595300102426075e-33 -2260510242532185e-33 .0
2092599432735255 0 0 1 .04027802454417735 1 0 0 50 206 279 0 195 197 248 0 +-359
5300102426075e-33 -2260510242532185e-33 .02092599432735255 0 0 1 1 0 0 50 223 3
 0 90 248 190 0 +-3595300102426075e-33 -.1157939029005204 .03616599432735255 0 0
 1 1 0 0 17 282 0 247 282 282 0 165 116 0 0 -15 283 268 0 162 189 0 17 162 0 283
 162 162 0 284 160 0 0 +17 284 0 222 284 284 0 162 160 0 0 -15 222 253 0 284 90
 28 17 165 0 205 165 165 0 282 116 0 0 +15 205 271 0 165 195 0 82 1 243 12645827
89 81 1 240 572 239 209 0 212 211 234 285 83 3 242 .568627450980392 .56862745098
0392 .588235294117647 81 1 212 627 198 209 240 0 208 217 286 81 1 211 571 239 16
 0 208 0 240 287 83 3 285 .568627450980392 .568627450980392 .588235294117647 83
 3 287 .568627450980392 .568627450980392 .588235294117647 82 1 286 1262747781 79
 14 238 SWEntUnchanged82 1 221 1262420101 17 29 0 28 74 25 64 215 127 0 214 +17
 74 0 28 80 29 70 69 75 0 73 +17 80 0 28 83 74 76 138 142 0 141 +17 83 0 28 85 8
0 81 151 154 0 149 +17 141 0 137 138 46 76 135 134 0 151 -17 151 0 148 135 149 7
6 83 154 0 0 -17 23 0 72 43 69 38 214 10 0 114 +15 72 163 0 43 209 0 17 43 0 72
 73 23 41 40 115 0 136 +82 1 213 1262616709 17 207 0 196 207 207 0 171 169 0 0 -
17 171 0 202 171 171 0 207 169 0 0 +15 202 438 0 171 183 0 82 1 201 1290076296 1
7 97 0 96 54 87 50 95 103 0 101 +19 17 184 0 1 0 9 5 S0 74 4 CI16 index_map_offs
et0 0 1 dCCZ20 15 9 0 0 288 289 290 245 291 292 13 252 2 0 0 0 0 0 0 0 0 0 0 0 8
1 2 288 224 293 1 0 289 0 0 0 294 81 2 289 228 295 1 288 290 0 0 0 296 81 2 290
 320 297 1 289 291 0 0 298 0 81 1 291 472 299 1 290 292 0 0 300 81 2 292 565 301
 1 291 13 0 0 0 302 81 2 13 568 303 1 292 2 0 0 0 0 80 2 303 304 305 9000 0 0 0
 0 3 5 0 0 0 FFTFFFFFFFFFFF9 1 79 16 305 BODY_RECIPE_200180 2 301 306 307 9000 0
 0 0 0 3 5 0 0 0 FFTFFFFFFFFFFF9 1 82 1 302 1 79 24 307 BODY_IN_LIGHTWEIGHT_PERM
80 1 299 308 309 9000 1 1 1 1 1 1 1 1 0 FFTFFFFFFFFFFF1 82 1 300 2181814 79 10 3
09 BODY_MATCH80 2 297 310 311 8004 0 0 0 0 3 5 0 0 0 FFTFFFFFFFFFFF2 3 83 1 298
 1 79 16 311 SDL/TYSA_DENSITY80 2 295 312 313 9000 0 0 0 0 3 5 0 0 0 FFTFFFFFFFF
FFF9 1 82 1 296 72 79 30 313 LAST_BODY_MODIFYING_FEATURE_ID80 2 293 314 315 9000
 0 0 0 0 3 5 0 0 0 FFTFFFFFFFFFFF9 1 82 1 294 135 79 19 315 ENT_TIME_STAMP_20018
0 2 12 316 317 9000 0 0 0 0 3 5 0 0 0 FFTFFFFFFFFFFF9 1 82 1 14 105 79 12 317 AT
OM_ID_20011 0 
