**ABCDEFGHIJKLMNOPQRSTUVWXYZabcdefghijklmnopqrstuvwxyz**************************
**PARASOLID !"#$%&'()*+,-./:;<=>?@[\]^_`{|}~0123456789**************************
**PART1;
MC=AMD64;
MC_MODEL=Intel64 Family 6 Model 78 Stepping 3, GenuineIntel;
MC_ID=unknown;
OS=Windows_NT;
OS_RELEASE=unknown;
FRU=Parasolid Version 31.1, build 278,  7-15-2019;
APPL=SOLIDWORKS 2020-2019269;
SITE=;
USER=unknown;
FORMAT=text;
GUISE=transmit;
KEY=base of cam;
FILE=base of cam.x_t;
DATE=Sun Aug  8 16:06:27 2021;
**PART2;
SCH=SCH_3101278_31100;
USFLD_SIZE=0;
**PART3;
**END_OF_HEADER*****************************************************************
T51 : TRANSMIT FILE created by modeller version 310127823 SCH_3101278_31100_1300
6222 0 12 34 CCCCCCI4 mesh1006 0 I8 polyline1008 0 CCCCCCCDI5 owner1040 0 CCCCCC
I13 boundary_mesh1006 0 I17 boundary_polyline1008 0 CCCA16 index_map_offset0 0 1
 dA9 index_map82 0 A17 node_id_index_map82 0 A20 schema_embedding_map82 0 A5 chi
ld12 0 A14 lowest_node_id0 0 1 dA16 mesh_offset_data206 0 Z1 203 2 3 0 0 0 0 0 0
 1e3 1e-8 0 4 0 1 0 1 1 5 6 7 0 0 0 8 9 0 0 0 0 0 0 0 0 81 255 2 2 198 10 1 11 0
 0 0 0 12 70 11 CI9 list_type0 0 1 uI10 notransmit0 0 1 lCCCDCCDI12 finger_index
0 0 1 dI12 finger_block1012 0 CZ3 0 4 T1 0 0 9 20 1 13 13 13 255 5 31 0 1 0 14 0
 0 15 0 51 255 6 30 0 14 16 0 17 -0 0 .762 0 0 -1 .1143 -1 0 0 38 12 CCCCCCCCCCC
A17 intersection_data204 0 Z7 104 0 18 19 0 0 +6 20 21 22 22 23 19 8 CCCCCCCA5 o
wner12 0 Z8 9 0 1 15 0 24 V0 16 255 9 5 0 ?25 0 26 19 0 0 1 17 255 25 0 27 25 25
 0 28 9 0 0 +16 26 64 0 ?29 9 30 31 0 0 1 31 255 19 7 0 9 32 7 0 +0 0 .762 0 0 1
 1 0 0 .1143 31 32 86 0 30 31 19 0 +0 0 .762 0 0 1 1 0 0 .0762 16 30 67 0 ?33 26
 18 32 0 0 1 31 31 87 0 26 0 32 0 +0 0 .667004 0 0 1 1 0 0 .0762 17 33 0 34 33 3
3 0 35 30 0 0 +16 18 108 0 ?36 30 0 7 0 0 1 17 36 0 37 36 36 0 38 18 0 0 +15 255
 37 102 0 36 14 39 17 38 0 40 38 38 0 36 18 0 0 -15 40 118 0 38 41 0 14 255 41 1
15 42 ?0 43 40 5 20 -0 0 0 43 24 81 1 42 199 44 41 45 0 0 46 47 14 43 75 46 ?41
 48 49 5 50 +0 0 41 48 24 51 20 133 0 41 0 50 51 +0 -.276352 0 0 1 0 .150368 0 0
 1 13 24 10 0 0 0 0 0 0 8 14 14 14 27 52 ?53 0 37 5 6 -0 0 53 0 24 81 1 52 201 4
4 14 54 0 46 55 56 14 53 1 55 ?48 14 57 5 16 +0 0 48 14 24 81 1 55 202 44 53 58
 0 52 59 60 14 48 70 59 ?43 53 61 5 62 -0 0 43 53 24 15 57 59 0 35 53 27 50 255
 16 3 0 53 62 6 0 +0 0 .762 0 0 1 1 0 0 51 62 83 0 48 50 16 0 +0 0 .667004 0 0 1
 .0762 1 0 0 50 50 85 0 43 20 62 0 +0 0 .667004 0 0 1 1 0 0 17 35 0 57 35 35 0 3
3 30 0 0 -15 27 4 0 25 53 0 81 1 59 203 44 48 63 0 55 0 64 15 61 73 0 65 48 34 1
7 65 0 61 65 65 0 29 26 0 0 -15 34 74 0 33 48 0 17 29 0 49 29 29 0 65 26 0 0 +15
 49 77 0 29 43 0 80 255 1 44 66 67 9000 1 1 1 1 1 1 1 1 0 FFFFTFTFFFFFFF1 81 1 6
3 184 68 48 0 59 58 69 70 82 255 1 64 1508114567 80 1 68 0 71 8001 0 0 0 0 3 5 0
 0 0 FFFFTFTFFFFFFF2 81 1 58 183 68 53 0 55 54 63 72 81 1 69 185 68 43 0 46 63 4
5 73 83 255 3 70 .647058823529412 .619607843137255 .588235294117647 81 1 46 200
 44 43 69 0 42 52 74 81 1 45 186 68 41 0 42 69 0 75 83 3 73 .647058823529412 .61
9607843137255 .588235294117647 83 3 75 .792156862745098 .819607843137255 .933333
333333333 82 1 74 1506148487 81 1 54 182 68 14 0 52 0 58 76 83 3 72 .64705882352
9412 .619607843137255 .588235294117647 83 3 76 .647058823529412 .619607843137255
 .588235294117647 79 255 15 71 SDL/TYSA_COLOUR79 14 67 SWEntUnchanged82 1 60 149
5859335 82 1 56 1497825417 141 255 51 7 51 51 20 82 1 47 1526923401 15 39 26 0 2
8 14 0 17 28 0 39 28 28 0 25 9 0 0 -19 15 32 0 1 0 8 5 S0 40 255 23 21 0 1 23 .0
076759932507686 .3998349999075995 ??-.1143 0 .0977038659624071 -.110014925730216
 -.03100332428264805 .1025048854473534 -.0950685225953318 -.0634544404399005 .11
65011220355448 -.0707471708990809 -.0897737590266568 .1326852412055548 -.0397581
353787533 -.1071624032541484 .1450166407527244 -.002948635696761735 -.1142619601
946674 .150339086639263 .0287984521885503 -.1106125632626954 .1475844997807824 .
0565740262765404 -.099317015414587 .139319470910786 .0822869738140571 -.07933059
90178108 .1258546358483654 .1040601356944334 -.0472861307283236 .108545030209844
8 .1126515850457426 -.0193419333749706 .099599978969284 .1141308501041352 .00621
603205488912 .0979014018209516 .1099903462737952 .0310904121325308 .102531259382
5446 .0953360136903442 .0630518397323545 .1162823284838866 .0711743943952357 .08
94354268870644 .1324565627157502 .040184691386296 .1070031802246464 .14489902001
80392 .00931585828829783 .1139197295658322 .1500791464806235 -.02272130904521905
 .112018891778448 .1486414395088788 -.0510514983973513 .1022655098818034 .141436
4872845238 -.0772025291242409 .0842867694055285 .1290360605444104 -.100181814647
806 .0550281202102405 .1121344703375046 -.1114513629022622 .0253590951579161 .10
0941216216312 -.1143 2952551246133965e-33 .0977038659624071 41 3 CI8 term_use0 0
 1 cCZ1 22 H?-.1143 2952551246133965e-33 .0977038659624071 204 2 17 INTERSECTION
_DATA17 Intersection data7 uv_type0 0 1 u6 values0 1 1 fT92 23 4 0 .664296134037
593 5.41966424206303 .276352 6.00849882950873 .659495114552647 5.46246377108631
 .245348675717352 5.69463364230444 .645498877964455 5.59874553974873 .2128975595
600995 5.37980734139558 .629314758794445 5.79333531217858 .1865782409733435 5.06
765544717033 .616983359247276 6.01559781191355 .1691895967458515 4.7381891802874
1 .611660913360737 6.26357458745782 .1620900398053325 4.45768912093856 .61441550
0219218 .1927103969509665 .1657394367373045 4.194599194214455 .622680529089214 .
385731662757714 .177034984585413 3.908700447541395 .636145364151635 .57905982089
3085 .197021400982189 3.568109190716815 .653454969790155 .764306345522714 .22906
58692716765 3.31163163095456 .662400021030716 .846812048597058 .2570100666250295
 3.0871823282067 .664098598179048 .861791563088122 .282568032054889 2.8661144872
0584 .659468740617455 .820481778792693 .307442412132531 2.55726988068756 .645717
671516113 .686737963257759 .3394038397323545 2.24298255374584 .62954343728425 .4
93072596040184 .3657874268870645 1.930046210865225 .617100979981961 .27053011449
95965 .3833551802246465 1.65239040544153 .611920853519377 .0619934298512075 .390
2717295658325 1.370676665079892 .613358560491121 6.1314996145561 .38837089177844
8 1.107784571397726 .620563512715476 5.93678898623677 .3786175098818035 .8292382
27369017 .63296393945559 5.74401529433268 .3606387694055285 .502292200294617 .64
9865529662495 5.55402424541178 .3313801202102405 .223726057300107 .6610587837836
88 5.44834294702823 .301711095157916 258315944543654e-31 .664296134037593 5.4196
6424206303 .276352 141 17 7 17 17 6 74 4 CI16 index_map_offset0 0 1 dCCZ20 13 9
 0 0 77 78 59 79 80 81 11 45 2 0 0 0 0 0 0 0 0 0 0 0 81 2 77 44 82 1 0 78 0 0 0
 83 81 2 78 48 84 1 77 79 0 0 0 85 81 1 79 152 86 1 78 80 0 0 87 81 2 80 161 88
 1 79 81 0 0 89 0 81 2 81 176 90 1 80 11 0 0 0 91 81 2 11 179 92 1 81 2 0 0 0 0
 80 2 92 93 94 9000 0 0 0 0 3 5 0 0 0 FFTFFFFFFFFFFF9 1 79 16 94 BODY_RECIPE_200
180 2 90 95 96 9000 0 0 0 0 3 5 0 0 0 FFTFFFFFFFFFFF9 1 82 1 91 1 79 24 96 BODY_
IN_LIGHTWEIGHT_PERM80 2 88 97 98 8004 0 0 0 0 3 5 0 0 0 FFTFFFFFFFFFFF2 3 83 1 8
9 1 79 16 98 SDL/TYSA_DENSITY80 1 86 99 100 9000 1 1 1 1 1 1 1 1 0 FFTFFFFFFFFFF
F1 82 1 87 4020519 79 10 100 BODY_MATCH80 2 84 101 102 9000 0 0 0 0 3 5 0 0 0 FF
TFFFFFFFFFFF9 1 82 1 85 58 79 30 102 LAST_BODY_MODIFYING_FEATURE_ID80 2 82 103 1
04 9000 0 0 0 0 3 5 0 0 0 FFTFFFFFFFFFFF9 1 82 1 83 120 79 19 104 ENT_TIME_STAMP
_200180 2 10 105 106 9000 0 0 0 0 3 5 0 0 0 FFTFFFFFFFFFFF9 1 82 1 12 103 79 12
 106 ATOM_ID_20011 0 
