**ABCDEFGHIJKLMNOPQRSTUVWXYZabcdefghijklmnopqrstuvwxyz**************************
**PARASOLID !"#$%&'()*+,-./:;<=>?@[\]^_`{|}~0123456789**************************
**PART1;
MC=AMD64;
MC_MODEL=Intel64 Family 6 Model 78 Stepping 3, GenuineIntel;
MC_ID=unknown;
OS=Windows_NT;
OS_RELEASE=unknown;
FRU=Parasolid Version 31.1, build 278,  7-15-2019;
APPL=SOLIDWORKS 2020-2019269;
SITE=;
USER=unknown;
FORMAT=text;
GUISE=transmit;
KEY=FLOWERPIN;
FILE=FLOWERPIN.x_t;
DATE=Mon Aug  9 01:14:07 2021;
**PART2;
SCH=SCH_3101278_31100;
USFLD_SIZE=0;
**PART3;
**END_OF_HEADER*****************************************************************
T51 : TRANSMIT FILE created by modeller version 310127823 SCH_3101278_31100_1300
6222 0 12 34 CCCCCCI4 mesh1006 0 I8 polyline1008 0 CCCCCCCDI5 owner1040 0 CCCCCC
I13 boundary_mesh1006 0 I17 boundary_polyline1008 0 CCCA16 index_map_offset0 0 1
 dA9 index_map82 0 A17 node_id_index_map82 0 A20 schema_embedding_map82 0 A5 chi
ld12 0 A14 lowest_node_id0 0 1 dA16 mesh_offset_data206 0 Z1 143 2 3 0 0 0 0 0 0
 1e3 1e-8 0 4 0 1 0 1 1 5 6 7 0 0 0 8 9 0 0 0 0 0 0 0 0 81 255 2 2 138 10 1 11 0
 0 0 0 12 70 11 CI9 list_type0 0 1 uI10 notransmit0 0 1 lCCCDCCDI12 finger_index
0 0 1 dI12 finger_block1012 0 CZ3 0 4 T1 0 0 9 20 1 13 13 13 255 5 31 0 1 0 14 0
 0 15 0 51 255 6 30 0 14 16 0 0 -0 .508 0 0 -1 0 .0200152 0 0 -1 31 255 7 25 0 1
7 18 0 0 +0 0 0 0 1 0 0 0 1 .0200152 19 8 CCCCCCCA5 owner12 0 Z8 9 0 1 15 0 19 V
0 16 255 9 5 0 ?20 0 17 18 0 0 1 17 255 20 0 21 20 20 0 22 9 0 0 +16 17 20 0 ?23
 9 24 7 0 0 1 31 18 7 0 9 25 7 0 +0 .508 0 0 1 0 0 0 1 .0200152 31 25 84 0 26 27
 18 0 +0 0 0 0 -1 0 0 0 -1 .0127 16 26 65 0 ?28 24 0 25 0 0 1 31 27 85 0 24 0 25
 0 +0 .0254 0 0 -1 0 0 0 -1 .0127 16 24 62 0 ?29 17 26 27 0 0 1 17 29 0 30 29 29
 0 31 24 0 0 +15 255 30 75 0 29 32 0 17 31 0 33 31 31 0 29 24 0 0 -15 33 71 0 31
 34 35 14 255 34 68 36 ?32 37 33 5 38 -0 0 32 37 19 15 35 72 0 28 34 0 17 28 0 3
5 28 28 0 39 26 0 0 +17 39 0 40 39 39 0 28 26 0 0 -15 40 56 0 39 37 41 14 37 18
 42 ?34 43 40 5 16 -0 0 34 43 19 15 41 19 0 44 37 0 17 44 0 41 44 44 0 23 17 0 0
 -17 23 0 45 23 23 0 44 17 0 0 +15 45 28 0 23 14 0 14 14 27 46 ?43 0 47 5 6 -0 0
 43 0 19 81 1 46 141 48 14 49 0 42 50 51 14 43 1 50 ?37 14 21 5 52 +0 0 37 14 19
 15 47 26 0 22 14 45 13 19 10 0 0 0 0 0 0 8 14 17 22 0 47 22 22 0 20 9 0 0 -81 1
 50 142 48 43 53 0 46 54 55 15 21 4 0 20 43 0 50 255 52 3 0 43 38 16 0 +0 .508 0
 0 1 0 0 0 1 51 38 81 0 34 56 52 0 +0 .0254 0 0 -1 0 .0127 0 0 -1 50 16 24 0 37
 52 6 0 +0 0 0 0 1 0 0 0 1 50 56 83 0 32 0 38 0 +0 .0254 0 0 -1 0 0 0 -1 14 32 7
3 54 ?0 34 30 5 56 +0 0 0 34 19 81 1 54 143 48 32 57 0 50 0 58 80 255 1 48 59 60
 9000 1 1 1 1 1 1 1 1 0 FFFFTFTFFFFFFF1 81 1 57 126 61 32 0 54 62 0 63 82 255 1
 58 -613089117 80 1 61 0 64 8001 0 0 0 0 3 5 0 0 0 FFFFTFTFFFFFFF2 81 1 62 125 6
1 34 0 36 65 57 66 83 255 3 63 .792156862745098 .819607843137255 .93333333333333
3 81 1 36 139 48 34 62 0 0 42 67 81 1 65 124 61 37 0 42 53 62 68 83 3 66 .792156
862745098 .819607843137255 .933333333333333 81 1 42 140 48 37 65 0 36 46 69 81 1
 53 123 61 43 0 50 49 65 70 83 3 68 .792156862745098 .819607843137255 .933333333
333333 81 1 49 122 61 14 0 46 0 53 71 83 3 70 .792156862745098 .819607843137255
 .933333333333333 83 3 71 .792156862745098 .819607843137255 .933333333333333 82
 1 69 -188743517 82 1 67 -611123037 79 255 15 64 SDL/TYSA_COLOUR79 14 60 SWEntUn
changed82 1 55 -190447458 82 1 51 -188481378 19 15 32 0 1 0 8 5 S0 74 4 CI16 ind
ex_map_offset0 0 1 dCCZ20 13 9 0 0 72 73 54 74 75 76 11 57 2 0 0 0 0 0 0 0 0 0 0
 0 81 2 72 44 77 1 0 73 0 0 0 78 81 2 73 48 79 1 72 74 0 0 0 80 81 1 74 94 81 1
 73 75 0 0 82 81 2 75 101 83 1 74 76 0 0 84 0 81 2 76 116 85 1 75 11 0 0 0 86 81
 2 11 119 87 1 76 2 0 0 0 0 80 2 87 88 89 9000 0 0 0 0 3 5 0 0 0 FFTFFFFFFFFFFF9
 1 79 16 89 BODY_RECIPE_200180 2 85 90 91 9000 0 0 0 0 3 5 0 0 0 FFTFFFFFFFFFFF9
 1 82 1 86 1 79 24 91 BODY_IN_LIGHTWEIGHT_PERM80 2 83 92 93 8004 0 0 0 0 3 5 0 0
 0 FFTFFFFFFFFFFF2 3 83 1 84 1 79 16 93 SDL/TYSA_DENSITY80 1 81 94 95 9000 1 1 1
 1 1 1 1 1 0 FFTFFFFFFFFFFF1 82 1 82 193700 79 10 95 BODY_MATCH80 2 79 96 97 900
0 0 0 0 0 3 5 0 0 0 FFTFFFFFFFFFFF9 1 82 1 80 87 79 30 97 LAST_BODY_MODIFYING_FE
ATURE_ID80 2 77 98 99 9000 0 0 0 0 3 5 0 0 0 FFTFFFFFFFFFFT9 1 82 1 78 133 79 19
 99 ENT_TIME_STAMP_200180 2 10 100 101 9000 0 0 0 0 3 5 0 0 0 FFTFFFFFFFFFFF9 1
 82 1 12 105 79 12 101 ATOM_ID_20011 0 
