**ABCDEFGHIJKLMNOPQRSTUVWXYZabcdefghijklmnopqrstuvwxyz**************************
**PARASOLID !"#$%&'()*+,-./:;<=>?@[\]^_`{|}~0123456789**************************
**PART1;
MC=AMD64;
MC_MODEL=Intel64 Family 6 Model 78 Stepping 3, GenuineIntel;
MC_ID=unknown;
OS=Windows_NT;
OS_RELEASE=unknown;
FRU=Parasolid Version 31.1, build 278,  7-15-2019;
APPL=SOLIDWORKS 2020-2019269;
SITE=;
USER=unknown;
FORMAT=text;
GUISE=transmit;
KEY=neechay wala hissa;
FILE=neechay wala hissa.x_t;
DATE=Sun Aug  8 16:05:10 2021;
**PART2;
SCH=SCH_3101278_31100;
USFLD_SIZE=0;
**PART3;
**END_OF_HEADER*****************************************************************
T51 : TRANSMIT FILE created by modeller version 310127823 SCH_3101278_31100_1300
6222 0 12 34 CCCCCCI4 mesh1006 0 I8 polyline1008 0 CCCCCCCDI5 owner1040 0 CCCCCC
I13 boundary_mesh1006 0 I17 boundary_polyline1008 0 CCCA16 index_map_offset0 0 1
 dA9 index_map82 0 A17 node_id_index_map82 0 A20 schema_embedding_map82 0 A5 chi
ld12 0 A14 lowest_node_id0 0 1 dA16 mesh_offset_data206 0 Z1 141 2 3 0 0 0 0 0 0
 1e3 1e-8 0 4 0 1 0 1 1 5 6 7 0 0 0 8 9 0 0 0 0 0 0 0 0 81 255 2 2 136 10 1 11 0
 0 0 0 12 70 11 CI9 list_type0 0 1 uI10 notransmit0 0 1 lCCCDCCDI12 finger_index
0 0 1 dI12 finger_block1012 0 CZ3 0 4 T1 0 0 9 20 1 13 13 13 255 5 29 0 1 0 14 0
 0 15 0 51 255 6 28 0 16 17 0 0 -0 0 .23622 0 0 -1 .150368 -1 0 0 31 255 7 23 0
 18 19 0 0 +0 0 0 0 0 1 1 0 0 .150368 19 8 CCCCCCCA5 owner12 0 Z8 7 0 1 15 0 20
 V0 16 255 9 4 0 ?21 0 18 19 0 0 1 17 255 21 0 22 21 21 0 23 9 0 0 +16 18 18 0 ?
24 9 25 7 0 0 1 31 19 5 0 9 26 7 0 +0 0 .23622 0 0 1 1 0 0 .150368 31 26 81 0 27
 28 19 0 +0 0 .23622 0 0 1 1 0 0 .05588 16 27 59 0 ?29 25 0 26 0 0 1 31 28 82 0
 25 0 26 0 +0 0 .35052 0 0 1 1 0 0 .05588 16 25 62 0 ?30 18 27 28 0 0 1 17 30 0
 31 30 30 0 32 25 0 0 +15 255 31 72 0 30 33 0 17 32 0 34 32 32 0 30 25 0 0 -15 3
4 68 0 32 35 36 14 255 35 65 37 ?33 38 34 5 39 -0 0 33 38 20 15 36 69 0 29 35 0
 17 29 0 36 29 29 0 40 27 0 0 +17 40 0 41 40 40 0 29 27 0 0 -15 41 53 0 40 14 0
 14 14 56 42 ?16 0 22 5 43 +0 0 16 0 20 81 1 42 138 44 14 45 0 37 46 47 14 16 25
 46 ?38 14 48 5 6 -0 0 38 14 20 15 22 3 0 21 14 41 50 255 43 2 0 14 39 17 0 +0 0
 .23622 0 0 1 1 0 0 13 20 8 0 0 0 0 0 0 8 14 51 39 78 0 35 49 43 0 -0 0 .35052 0
 0 -1 .05588 -1 0 0 50 17 22 0 38 43 6 0 +0 0 0 0 0 1 1 0 0 14 38 16 50 ?35 16 5
1 5 17 -0 0 35 16 20 81 1 50 140 44 38 52 0 46 53 54 15 51 17 0 55 38 0 17 55 0
 51 55 55 0 24 18 0 0 -17 24 0 56 24 24 0 55 18 0 0 +15 56 26 0 24 16 0 80 255 1
 44 57 58 9000 1 1 1 1 1 1 1 1 0 FFFFTFTFFFFFFF1 81 1 52 122 59 38 0 50 60 61 62
 81 1 46 139 44 16 60 0 42 50 63 81 1 53 141 44 33 64 0 50 0 65 82 255 1 54 -320
995225 14 33 70 53 ?0 35 31 5 49 +0 0 0 35 20 81 1 64 124 59 33 0 53 61 0 66 82
 1 65 -177274769 80 1 59 0 67 8001 0 0 0 0 3 5 0 0 0 FFFFTFTFFFFFFF2 81 1 61 123
 59 35 0 37 52 64 68 83 255 3 66 .792156862745098 .819607843137255 .933333333333
333 81 1 37 137 44 35 61 0 0 42 69 83 3 68 .792156862745098 .819607843137255 .93
3333333333333 82 1 69 -175308689 79 255 15 67 SDL/TYSA_COLOUR50 49 80 0 33 0 39
 0 +0 0 .35052 0 0 1 1 0 0 81 1 60 121 59 16 0 46 45 52 70 82 1 63 -320733081 81
 1 45 120 59 14 0 42 0 60 71 83 3 70 .792156862745098 .819607843137255 .93333333
3333333 83 3 71 .792156862745098 .819607843137255 .933333333333333 83 3 62 .7921
56862745098 .819607843137255 .933333333333333 79 14 58 SWEntUnchanged15 48 24 0
 23 16 56 17 23 0 48 23 23 0 21 9 0 0 -82 1 47 -172949393 19 15 30 0 1 0 8 5 S0
 74 4 CI16 index_map_offset0 0 1 dCCZ20 13 9 0 0 53 72 73 74 75 76 11 64 2 0 0 0
 0 0 0 0 0 0 0 0 81 2 72 83 77 1 0 73 0 0 0 78 81 2 73 87 79 1 72 74 0 0 0 80 81
 1 74 91 81 1 73 75 0 0 82 81 2 75 99 83 1 74 76 0 0 84 0 81 2 76 114 85 1 75 11
 0 0 0 86 81 2 11 117 87 1 76 2 0 0 0 0 80 2 87 88 89 9000 0 0 0 0 3 5 0 0 0 FFT
FFFFFFFFFFF9 1 79 16 89 BODY_RECIPE_200180 2 85 90 91 9000 0 0 0 0 3 5 0 0 0 FFT
FFFFFFFFFFF9 1 82 1 86 1 79 24 91 BODY_IN_LIGHTWEIGHT_PERM80 2 83 92 93 8004 0 0
 0 0 3 5 0 0 0 FFTFFFFFFFFFFF2 3 83 1 84 1 79 16 93 SDL/TYSA_DENSITY80 1 81 94 9
5 9000 1 1 1 1 1 1 1 1 0 FFTFFFFFFFFFFF1 82 1 82 3956656 79 10 95 BODY_MATCH80 2
 79 96 97 9000 0 0 0 0 3 5 0 0 0 FFTFFFFFFFFFFF9 1 82 1 80 39 79 30 97 LAST_BODY
_MODIFYING_FEATURE_ID80 2 77 98 99 9000 0 0 0 0 3 5 0 0 0 FFTFFFFFFFFFFF9 1 82 1
 78 109 79 19 99 ENT_TIME_STAMP_200180 2 10 100 101 9000 0 0 0 0 3 5 0 0 0 FFTFF
FFFFFFFFF9 1 82 1 12 102 79 12 101 ATOM_ID_20011 0 
