**ABCDEFGHIJKLMNOPQRSTUVWXYZabcdefghijklmnopqrstuvwxyz**************************
**PARASOLID !"#$%&'()*+,-./:;<=>?@[\]^_`{|}~0123456789**************************
**PART1;
MC=AMD64;
MC_MODEL=Intel64 Family 6 Model 78 Stepping 3, GenuineIntel;
MC_ID=unknown;
OS=Windows_NT;
OS_RELEASE=unknown;
FRU=Parasolid Version 31.1, build 278,  7-15-2019;
APPL=SOLIDWORKS 2020-2019269;
SITE=;
USER=unknown;
FORMAT=text;
GUISE=transmit;
KEY=NEW stand;
FILE=NEW stand.x_t;
DATE=Mon Aug  9 01:13:54 2021;
**PART2;
SCH=SCH_3101278_31100;
USFLD_SIZE=0;
**PART3;
**END_OF_HEADER*****************************************************************
T51 : TRANSMIT FILE created by modeller version 310127823 SCH_3101278_31100_1300
6222 0 12 34 CCCCCCI4 mesh1006 0 I8 polyline1008 0 CCCCCCCDI5 owner1040 0 CCCCCC
I13 boundary_mesh1006 0 I17 boundary_polyline1008 0 CCCA16 index_map_offset0 0 1
 dA9 index_map82 0 A17 node_id_index_map82 0 A20 schema_embedding_map82 0 A5 chi
ld12 0 A14 lowest_node_id0 0 1 dA16 mesh_offset_data206 0 Z1 2675 2 3 0 0 0 0 0
 0 1e3 1e-8 0 4 0 1 0 1 1 5 6 7 8 0 0 9 10 11 0 0 0 0 0 0 0 81 255 2 2 2643 12 1
 13 0 0 0 0 14 70 11 CI9 list_type0 0 1 uI10 notransmit0 0 1 lCCCDCCDI12 finger_
index0 0 1 dI12 finger_block1012 0 CZ3 0 4 T1 0 0 9 20 1 15 15 13 255 5 99 0 1 0
 16 0 0 17 0 50 255 6 94 0 18 19 0 0 +0 0 .635 -1 0 0 0 0 1 31 255 7 1886 0 20 2
1 0 0 -.380128499026484 .6187694 -.5226934527983 0 -1 0 0 0 -1 .0508 29 255 8 14
96 0 11 22 0 .44363894 .5679694 0 19 8 CCCCCCCA5 owner12 0 Z9 33 0 1 17 0 23 V0
 16 255 10 2071 0 ?24 0 20 25 0 0 1 18 255 11 1494 0 26 0 27 8 ?1 17 255 26 0 28
 29 30 11 31 32 0 33 -18 27 1476 0 34 11 35 22 ?1 17 34 0 36 37 38 27 39 40 0 41
 +18 35 642 0 42 27 43 44 ?1 29 22 1478 0 27 44 8 .31663894 .6187694 0 29 44 644
 0 35 45 22 .128437741189871 .316844882379742 0 29 45 628 0 43 46 44 .6223 .3393
694 0 18 43 626 0 47 35 48 45 ?1 29 46 555 0 48 49 45 .633562258810129 .31684488
23797415 .1016 18 48 553 0 50 43 51 46 ?1 29 49 552 0 51 52 46 .6223 .3393694 .1
016 18 51 550 0 53 48 54 49 ?1 29 52 549 0 54 55 49 .1397 .3393694 .1016 18 54 5
47 0 56 51 57 52 ?1 29 55 546 0 57 58 52 .1284377411898708 .3168448823797415 .10
16 18 57 544 0 59 54 60 55 ?1 29 58 142 0 60 61 55 0 .0599694 .1016 18 60 140 0
 62 57 63 58 ?1 29 61 139 0 63 64 58 -.0599694 .0599694 .1016 18 63 137 0 65 60
 66 61 ?1 29 64 75 0 67 68 61 0 0 0 18 67 66 0 69 70 71 64 ?1 29 68 76 0 71 72 6
4 -.0599694 -573775829877644e-32 0 18 71 67 0 73 67 74 68 ?1 29 72 78 0 74 75 68
 0 .0599694 0 18 74 69 0 76 71 77 72 ?1 29 75 32 0 66 78 72 0 0 .635 18 66 30 0
 79 63 80 75 ?1 29 78 29 0 80 81 75 -.0599694 -573775829877644e-32 .635 18 80 27
 0 82 66 83 78 ?1 29 81 26 0 83 84 78 -.0599694 .0599694 .635 18 83 24 0 85 80 7
0 81 ?1 29 84 23 0 70 86 81 0 .0599694 .635 18 70 21 0 87 83 67 84 ?1 29 86 296
 0 88 89 84 -.0599694 .0599694 0 18 88 211 0 90 91 92 86 ?1 29 89 298 0 92 93 86
 .530740058052968 .6187694 0 18 92 209 0 94 88 95 89 ?1 29 93 305 0 77 96 89 .22
951694 .6187694 .1016 18 77 217 0 97 74 98 93 ?1 29 96 306 0 98 99 93 .530740058
052968 .6187694 .1016 18 98 216 0 100 77 101 96 ?1 29 99 307 0 101 102 96 .82196
94 .0599694 .1016 18 101 215 0 103 98 104 99 ?1 29 102 309 0 104 105 99 .508 .56
79694 .1016 18 104 213 0 106 101 91 102 ?1 29 105 310 0 91 107 102 .254 .5679694
 .1016 18 91 206 0 108 104 88 105 ?1 29 107 385 0 95 109 105 .762 .0599694 .1016
 18 95 332 0 110 92 111 107 ?1 29 109 386 0 112 113 107 .8219694 194694268781174
e-30 0 18 112 338 0 114 115 116 109 ?1 29 113 387 0 116 117 109 .762 18735013540
5495e-30 0 18 116 336 0 118 112 119 113 ?1 29 117 388 0 119 120 113 .762 .059969
4 0 18 119 337 0 121 116 122 117 ?1 29 120 389 0 122 123 117 .8219694 .0599694 0
 18 122 335 0 124 119 125 120 ?1 29 123 390 0 111 126 120 .8219694 1946942687811
74e-30 .635 18 111 341 0 127 95 128 123 ?1 29 126 391 0 128 129 123 .762 1873501
35405495e-30 .635 18 128 340 0 130 111 131 126 ?1 29 129 392 0 131 132 126 .762
 .0599694 .635 18 131 339 0 133 128 115 129 ?1 29 132 393 0 115 134 129 .8219694
 .0599694 .635 18 115 333 0 135 131 112 132 ?1 29 134 845 0 125 136 132 .6335622
58810129 .3168448823797415 0 18 125 754 0 137 122 138 134 ?1 29 136 849 0 138 13
9 134 .1397 .3393694 693889390390723e-32 18 138 753 0 140 125 141 136 ?1 29 139
 1192 0 141 142 136 .508 .5679694 0 18 141 1148 0 143 138 144 139 ?1 29 142 1193
 0 144 145 139 .254 .5679694 0 18 144 1149 0 146 141 147 142 ?1 29 145 1194 0 14
8 149 142 .22951694 .6187694 0 18 148 1144 0 150 151 152 145 ?1 29 149 1195 0 15
2 153 145 .303928499026484 .6187694 -.533325167084014 18 152 1146 0 154 148 155
 149 ?1 29 153 1196 0 155 156 149 .456328499026484 .6187694 -.533325167084014 18
 155 1147 0 157 152 158 153 ?1 29 156 1198 0 147 159 153 .22951694 .5679694 0 18
 147 1140 0 160 144 161 156 ?1 29 159 1199 0 161 162 156 .303928499026484 .56796
94 -.533325167084014 18 161 1143 0 163 147 164 159 ?1 29 162 1200 0 164 165 159
 .456328499026484 .5679694 -.533325167084014 18 164 1145 0 166 161 151 162 ?1 29
 165 1201 0 151 167 162 .530740058052968 .5679694 0 18 151 1141 0 168 164 148 16
5 ?1 29 167 1630 0 158 169 165 .38013894 .5679694 -.4693956775894 18 158 1566 0
 170 155 171 167 ?1 29 169 1634 0 171 172 167 .31663894 .5679694 0 18 171 1558 0
 29 158 173 169 ?1 29 172 1637 0 173 174 169 .38013894 .6187694 -.4693956775894
 18 173 1560 0 38 171 175 172 ?1 29 174 1638 0 175 0 172 .44363894 .6187694 0 18
 175 1561 0 31 173 0 174 ?1 17 31 0 176 177 33 175 26 32 0 30 +15 255 176 1578 0
 31 178 0 17 177 0 176 179 31 173 180 181 0 39 +17 33 0 176 31 179 11 182 183 0
 184 -16 32 1530 0 ?31 185 186 187 0 0 1 17 30 0 28 26 41 175 188 189 0 180 +15
 28 1582 0 41 190 0 17 41 0 28 30 29 27 37 186 0 188 +17 188 0 191 39 180 27 30
 189 0 0 -16 189 1552 0 ?30 181 40 192 0 0 1 17 180 0 191 188 39 175 177 181 0 0
 -15 191 1474 0 188 193 194 17 39 0 191 180 188 173 34 40 0 0 -16 181 1555 0 ?17
7 186 189 195 0 0 1 16 186 1526 0 ?41 32 181 196 0 0 1 134 255 195 1624 0 181 19
2 197 0 +198 199 30 255 192 1625 0 189 200 195 0 +.31663894 .6187694 0 1 0 0 30
 197 1623 0 185 195 187 0 +.38013894 0 -.4693956775894 0 1 0 136 255 198 3 7 3 5
 6 FFF1 201 202 203 135 255 199 2 0 45 255 21 201 .44363894 .6187694 0 .53409296
6377413 .6187694 -.0732725503091512 .412875522590463 .6187694 -.15381005242292 .
462148891496792 .6187694 -.2960762486801165 .393499435083084 .6187694 -.38214624
36583265 .427489547728666 .6187694 -.454141623855723 .38013894 .6187694 -.469395
6775894 127 255 5 202 4 1 1 1 4 128 255 5 203 0 .403522035046073 .61798733577189
3 .803164244073778 1 16 185 1528 0 ?38 204 32 197 0 0 1 30 187 1622 0 32 197 196
 0 +.44363894 0 0 0 1 0 30 196 1621 0 186 187 205 0 +.31663894 0 0 0 1 0 30 205
 1618 0 204 196 206 0 +.254 .5679694 0 1 0 0 16 204 1529 0 ?184 183 185 205 0 0
 1 134 206 1617 0 183 205 207 0 +208 209 16 183 1527 0 ?182 210 204 206 0 0 1 13
4 207 1616 0 210 206 211 0 +212 213 136 208 3 7 3 5 6 FFF1 214 215 216 135 209 2
 0 45 21 214 .44363894 .5679694 0 .534092966377413 .5679694 -.0732725503091512 .
412875522590463 .5679694 -.15381005242292 .462148891496792 .5679694 -.2960762486
801165 .393499435083084 .5679694 -.3821462436583265 .427489547728666 .5679694 -.
454141623855723 .38013894 .5679694 -.4693956775894 127 5 215 4 1 1 1 4 128 5 216
 0 .403522035046073 .617987335771893 .803164244073778 1 16 210 1525 0 ?217 218 1
83 207 0 0 1 30 211 1191 0 219 207 220 0 +.22951694 .5679694 0 1 0 0 136 212 3 7
 3 5 6 FFF1 221 222 223 135 213 2 0 45 21 221 .38013894 .5679694 -.4693956775893
99 .3327883322713335 .5679694 -.454141623855723 .3667784449169155 .5679694 -.382
1462436583265 .2981289885032075 .5679694 -.2960762486801165 .347402357409537 .56
79694 -.15381005242292 .2261849136225865 .5679694 -.0732725503091512 .31663894 .
5679694 0 127 5 222 4 1 1 1 4 128 5 223 0 .1968357559262225 .382012664228107 .59
6477964953927 1 16 219 1106 0 ?146 224 225 211 226 226 1 30 220 1190 0 224 211 2
27 0 +.530740058052968 .5679694 0 -.138185273415234 0 -.990406396491439 16 224 1
124 0 ?228 229 219 220 0 0 1 31 227 1189 0 229 220 230 0 +.380128499026484 .5679
694 -.5226934527983 0 1 0 0 0 -1 .0769381137580917 16 229 1120 0 ?231 232 224 22
7 0 0 1 30 230 1188 0 232 227 233 0 +.22951694 .5679694 0 -.138185273415234 0 .9
90406396491439 16 232 1116 0 ?234 235 229 230 0 0 1 30 233 1186 0 218 230 236 0
 +.530740058052968 .6187694 0 -.138185273415234 0 -.990406396491439 16 218 1131
 0 ?237 238 210 233 0 0 1 31 236 1185 0 238 233 239 0 +.380128499026484 .6187694
 -.5226934527983 0 1 0 0 0 -1 .0769381137580917 16 238 1134 0 ?240 225 218 236 0
 0 1 30 239 1184 0 225 236 241 0 +.22951694 .6187694 0 -.138185273415234 0 .9904
06396491439 16 225 1137 0 ?242 219 238 239 0 0 1 30 241 1183 0 243 239 244 0 +.2
2951694 .5679694 0 0 1 0 16 243 1119 0 ?150 245 246 241 0 0 1 30 244 1182 0 246
 241 247 0 +.303928499026484 .5679694 -.533325167084014 0 1 0 16 246 1123 0 ?154
 243 248 244 0 0 1 30 247 1181 0 248 244 249 0 +.456328499026484 .5679694 -.5333
25167084014 0 1 0 16 248 1127 0 ?157 246 235 247 0 0 1 30 249 1180 0 235 247 250
 0 +.530740058052968 .5679694 0 0 1 0 16 235 1115 0 ?251 248 232 249 0 0 1 30 25
0 841 0 252 249 253 0 +.688093813572336 .3168448823797415 .1016 1 90263668085540
3e-31 0 16 252 693 0 ?254 255 256 250 0 0 1 30 253 839 0 255 250 257 0 +.0847737
7 .3393694 .1016 -1 -3753410273556335e-31 0 16 255 689 0 ?258 259 252 253 0 0 1
 30 257 837 0 245 253 260 0 +.688093813572336 .3168448823797415 0 1 902636680855
403e-31 0 16 245 708 0 ?137 256 243 257 0 0 1 30 260 835 0 256 257 261 0 +.08477
377 .3393694 0 -1 -3753410273556335e-31 0 16 256 716 0 ?140 252 245 260 0 0 1 30
 261 830 0 259 260 262 0 +.6223 .3393694 .1016 0 0 -1 16 259 720 0 ?263 264 255
 261 0 0 1 30 262 829 0 264 261 265 0 +.1397 .3393694 .1016 0 0 1 16 264 719 0 ?
266 267 259 262 0 0 1 30 265 828 0 267 262 268 0 +.633562258810129 .316844882379
7415 .1016 0 0 1 16 267 711 0 ?269 270 264 265 0 0 1 30 268 827 0 270 265 271 0
 +.1284377411898708 .3168448823797415 .1016 0 0 -1 16 270 707 0 ?272 273 267 268
 0 0 1 30 271 383 0 274 268 275 0 +.8219694 194694268781174e-30 .635 0 1 0 16 27
4 328 0 ?276 277 278 271 0 0 1 30 275 382 0 277 271 279 0 +.8219694 .0599694 .63
5 -1 -1157072424254242e-31 0 16 277 329 0 ?133 280 274 275 0 0 1 30 279 381 0 28
0 275 281 0 +.762 187350135405495e-30 .635 0 -1 0 16 280 330 0 ?130 282 277 279
 0 0 1 30 281 380 0 282 279 283 0 +.8219694 194694268781174e-30 .635 1 122464679
914735e-30 0 16 282 331 0 ?127 284 280 281 0 0 1 30 283 379 0 273 281 285 0 +.82
19694 194694268781174e-30 0 0 1 0 16 273 319 0 ?124 286 270 283 0 0 1 30 285 377
 0 286 283 287 0 +.762 187350135405495e-30 0 0 -1 0 16 286 323 0 ?118 278 273 28
5 0 0 1 30 287 376 0 278 285 288 0 +.8219694 194694268781174e-30 0 1 12246467991
4735e-30 0 16 278 326 0 ?114 274 286 287 0 0 1 30 288 375 0 284 287 289 0 +.8219
694 194694268781174e-30 .635 0 0 -1 16 284 320 0 ?290 291 282 288 0 0 1 30 289 3
74 0 291 288 292 0 +.762 187350135405495e-30 .635 0 0 -1 16 291 327 0 ?293 294 2
84 289 0 0 1 30 292 373 0 294 289 295 0 +.762 .0599694 .635 0 0 -1 16 294 324 0
 ?296 297 291 292 0 0 1 30 295 372 0 297 292 298 0 +.8219694 .0599694 .635 0 0 -
1 16 297 317 0 ?103 299 294 295 0 0 1 30 298 294 0 300 295 301 0 +0 .0599694 .10
16 .447213595499958 .894427190999916 0 16 300 181 0 ?302 303 304 298 304 304 1 3
0 301 293 0 303 298 305 0 +.254 .5679694 .1016 1 0 0 16 303 184 0 ?106 306 300 3
01 0 0 1 30 305 292 0 307 301 308 0 +.508 .5679694 .1016 .447213595499958 -.8944
27190999916 0 16 307 187 0 ?309 310 306 305 306 306 1 30 308 291 0 310 305 311 0
 +.762 .0599694 .1016 1 1157072424254242e-31 0 16 310 190 0 ?312 313 307 308 0 0
 1 30 311 290 0 313 308 314 0 +.8219694 .0599694 .1016 -.462168682907567 .886792
03229364 0 16 313 193 0 ?100 315 310 311 0 0 1 30 314 289 0 315 311 316 0 +.2295
1694 .6187694 .1016 -1 0 0 16 315 196 0 ?97 317 313 314 0 0 1 30 316 288 0 317 3
14 318 0 +-.0599694 .0599694 .1016 -.45998927295107 -.88792447244681 0 16 317 19
9 0 ?65 319 315 316 0 0 1 30 318 287 0 319 316 320 0 +0 .0599694 .1016 1 0 0 16
 319 202 0 ?321 322 317 318 0 0 1 30 320 286 0 323 318 324 0 +0 .0599694 0 .4472
13595499958 .894427190999916 0 16 323 149 0 ?42 325 299 320 299 299 1 30 324 284
 0 326 320 327 0 +.508 .5679694 0 .447213595499958 -.894427190999916 0 16 326 15
7 0 ?47 328 325 324 325 325 1 30 327 282 0 328 324 329 0 +.8219694 .0599694 0 -.
462168682907567 .88679203229364 0 16 328 165 0 ?330 331 326 327 0 0 1 30 329 280
 0 331 327 332 0 +-.0599694 .0599694 0 -.45998927295107 -.88792447244681 0 16 33
1 173 0 ?90 304 328 329 0 0 1 30 332 278 0 322 329 333 0 +0 .0599694 .1016 0 0 -
1 16 322 152 0 ?334 335 319 332 0 0 1 30 333 277 0 335 332 336 0 +-.0599694 .059
9694 .1016 0 0 -1 16 335 180 0 ?337 338 322 333 0 0 1 30 336 276 0 338 333 339 0
 +.22951694 .6187694 .1016 0 0 -1 16 338 176 0 ?340 341 335 336 0 0 1 30 339 275
 0 341 336 342 0 +.530740058052968 .6187694 .1016 0 0 -1 16 341 172 0 ?343 344 3
38 339 0 0 1 30 342 274 0 344 339 345 0 +.8219694 .0599694 .1016 0 0 -1 16 344 1
68 0 ?346 347 341 342 0 0 1 30 345 273 0 347 342 348 0 +.762 .0599694 .1016 0 0
 -1 16 347 164 0 ?349 350 344 345 0 0 1 30 348 272 0 350 345 351 0 +.508 .567969
4 .1016 0 0 -1 16 350 160 0 ?352 353 347 348 0 0 1 30 351 271 0 353 348 354 0 +.
254 .5679694 .1016 0 0 -1 16 353 156 0 ?355 356 350 351 0 0 1 30 354 7 0 357 351
 358 0 +0 0 .635 0 1 0 16 357 5 0 ?359 360 361 354 0 0 1 30 358 11 0 360 354 362
 0 +0 .0599694 .635 -1 0 0 16 360 9 0 ?85 363 357 358 0 0 1 30 362 15 0 363 358
 364 0 +-.0599694 -573775829877644e-32 .635 -115707242425424e-30 -1 0 16 363 13
 0 ?82 365 360 362 0 0 1 30 364 19 0 365 362 366 0 +0 0 .635 1 956781008110209e-
31 0 16 365 17 0 ?79 367 363 364 0 0 1 30 366 74 0 356 364 368 0 +0 0 0 0 1 0 16
 356 62 0 ?76 369 353 366 0 0 1 30 368 72 0 369 366 370 0 +-.0599694 -5737758298
77644e-32 0 -115707242425424e-30 -1 0 16 369 54 0 ?73 361 356 368 0 0 1 30 370 7
1 0 361 368 371 0 +0 0 0 1 956781008110209e-31 0 16 361 50 0 ?69 357 369 370 0 0
 1 30 371 95 0 367 370 372 0 +0 0 .635 0 0 -1 16 367 79 0 ?373 374 365 371 0 0 1
 30 372 96 0 374 371 375 0 +-.0599694 -573775829877644e-32 .635 0 0 -1 16 374 80
 0 ?376 377 367 372 0 0 1 30 375 97 0 377 372 21 0 +-.0599694 .0599694 .635 0 0
 -1 16 377 81 0 ?378 379 374 375 0 0 1 30 21 98 0 379 375 7 0 +0 .0599694 .635 0
 0 -1 16 379 82 0 ?380 226 377 21 0 0 1 17 380 0 381 382 87 60 383 379 0 321 +16
 226 1093 0 ?384 20 379 211 219 219 1 17 384 0 385 251 386 151 143 226 0 0 +16 2
0 1883 0 ?387 10 226 7 0 0 1 17 387 0 388 387 387 0 389 20 0 0 +15 388 1902 0 38
7 390 0 17 389 0 391 389 389 0 387 20 0 0 -15 391 1885 0 389 193 191 14 255 193
 241 392 ?393 394 391 5 395 -0 0 393 394 23 81 1 392 2644 396 193 397 0 0 398 39
9 14 393 245 398 ?400 193 401 5 402 -0 0 400 193 23 14 394 237 403 ?193 404 405
 5 406 -0 0 193 404 23 50 395 266 0 193 402 406 0 +.22951694 .6187694 .1016 0 -1
 0 0 0 -1 13 23 34 0 0 0 0 0 0 9 16 14 16 1099 407 ?408 0 385 5 409 -0 0 408 0 2
3 81 1 407 2647 396 16 410 0 403 411 412 14 408 655 411 ?413 16 414 5 415 -413 4
13 413 16 23 15 385 1098 0 416 16 0 50 409 70 0 16 417 418 0 +0 0 0 0 0 1 1 0 0
 50 417 3 0 419 415 409 0 +0 0 .635 0 0 1 1 0 0 50 418 91 0 420 409 421 0 +0 0 .
635 -956781008110209e-31 1 0 -1 -956781008110209e-31 0 14 420 84 422 ?419 423 42
4 5 418 -0 0 419 423 23 50 421 92 0 423 418 19 0 +-.0599694 -573775829877644e-32
 .635 1 -115707242425424e-30 0 115707242425424e-30 1 0 14 423 86 425 ?420 18 426
 5 421 -0 0 420 18 23 50 19 93 0 427 421 6 0 +0 .0599694 .635 0 -1 0 0 0 -1 14 4
27 146 428 ?18 429 381 5 19 -0 0 18 429 23 81 1 428 2651 396 427 430 0 425 431 4
32 14 18 90 431 ?423 427 433 5 6 -0 0 423 427 23 14 429 634 434 ?427 435 436 5 4
37 -435 435 427 435 23 15 381 144 0 382 427 0 17 382 0 381 438 380 63 321 319 0
 378 -17 438 0 381 87 382 83 378 377 0 439 -17 321 0 440 302 65 60 382 319 0 441
 +17 378 0 426 337 439 63 438 377 0 442 +15 426 85 0 73 423 0 17 337 0 426 73 37
8 88 442 335 0 0 +17 439 0 426 378 443 83 82 363 0 0 -17 442 0 401 444 90 63 337
 335 0 0 -15 401 248 0 90 393 0 17 444 0 401 340 442 77 65 317 0 0 -17 90 0 401
 442 340 88 445 331 0 446 +17 340 0 401 90 444 148 447 338 0 445 +17 445 0 385 4
48 446 148 90 331 0 0 -17 446 0 385 445 449 88 73 369 0 337 -17 449 0 385 446 45
0 71 69 361 0 0 -17 73 0 426 443 337 71 446 369 0 376 +17 443 0 426 439 73 80 37
6 374 0 451 -17 376 0 424 69 451 71 443 374 0 449 +15 424 83 0 69 420 0 17 69 0
 424 452 376 67 449 361 0 373 +17 451 0 424 376 452 80 79 365 0 0 -17 452 0 424
 451 69 66 373 367 0 453 -17 79 0 454 359 82 66 451 365 0 452 +15 454 4 0 359 41
9 0 17 359 0 454 85 79 70 453 357 0 383 +17 82 0 454 79 85 80 439 363 0 443 +17
 85 0 454 82 359 83 87 360 0 438 +17 87 0 381 380 438 70 85 360 0 359 -17 453 0
 433 373 383 66 359 357 0 0 -17 383 0 433 453 62 70 380 379 0 0 -15 433 89 0 76
 18 0 17 62 0 433 383 76 60 334 322 0 380 -17 76 0 433 62 373 74 450 356 0 334 +
17 334 0 414 42 441 74 62 322 0 455 +15 414 654 0 59 408 0 17 42 0 414 59 334 35
 455 323 0 272 +17 441 0 414 334 59 60 302 300 0 0 -17 455 0 385 450 456 74 42 3
23 0 0 -17 450 0 385 449 455 67 76 356 0 0 -17 456 0 385 455 416 35 137 245 0 0
 -17 416 0 385 456 457 125 121 325 0 458 -17 137 0 459 269 272 125 456 245 0 416
 +15 459 780 0 460 461 0 17 269 0 459 460 137 48 458 267 0 254 +17 272 0 459 137
 460 35 59 270 0 456 +17 460 0 459 272 269 57 254 252 0 0 -17 59 0 414 441 42 57
 272 270 0 302 -17 302 0 440 254 321 57 441 300 0 460 +15 440 255 0 65 400 0 17
 254 0 440 110 302 48 460 252 0 0 +17 110 0 440 312 254 95 50 306 0 462 +17 312
 0 440 100 110 101 462 310 0 463 +17 50 0 464 458 465 48 110 306 0 269 -16 306 5
54 0 ?110 307 303 305 307 307 1 17 462 0 466 467 103 95 312 310 0 296 -15 466 34
4 0 103 468 0 17 467 0 466 135 462 131 296 294 0 469 -17 103 0 466 462 135 101 4
70 297 0 471 +17 296 0 472 349 469 95 467 294 0 465 +15 472 353 0 118 473 0 17 3
49 0 472 118 296 119 465 347 0 457 +17 469 0 472 296 474 131 130 280 0 0 -17 465
 0 464 50 121 95 349 347 0 0 -15 464 638 0 458 435 0 17 121 0 464 465 458 119 41
6 325 0 349 +17 458 0 464 121 50 125 269 267 0 0 -16 325 630 0 ?121 326 323 324
 326 326 1 14 435 639 475 ?429 413 464 5 437 -429 429 429 413 23 81 1 475 2654 3
96 435 476 0 434 477 478 14 413 650 477 ?435 408 479 5 415 -408 408 435 408 23 5
0 437 263 0 435 406 480 0 +.508 .5679694 .1016 .894427190999916 .447213595499958
 0 -.447213595499958 .894427190999916 0 50 406 265 0 394 395 437 0 +.8219694 .05
99694 .1016 -.88679203229364 -.462168682907567 0 .462168682907567 -.886792032293
64 0 50 480 262 0 404 437 415 0 +.254 .5679694 .1016 0 1 0 0 0 1 14 404 225 481
 ?394 419 482 5 480 -0 0 394 419 23 50 415 261 0 408 480 417 0 +0 .0599694 .1016
 -.894427190999916 .447213595499958 0 -.447213595499958 -.894427190999916 0 81 1
 481 2656 396 404 483 0 477 484 485 14 419 1 484 ?404 420 454 5 417 +0 0 404 420
 23 15 482 1492 0 182 404 486 17 182 0 482 217 184 158 33 183 0 0 +15 486 228 0
 355 404 0 17 355 0 486 160 487 144 488 353 0 0 +17 160 0 486 489 355 147 146 21
9 0 234 -17 487 0 486 355 490 91 106 303 0 488 -17 488 0 479 56 491 91 355 353 0
 0 -15 479 649 0 492 413 0 17 56 0 479 492 488 54 108 304 0 266 -17 491 0 479 48
8 492 144 493 299 0 355 +17 492 0 479 491 56 138 266 264 0 0 -17 493 0 385 494 1
46 138 491 299 0 492 -16 299 646 0 ?491 323 297 320 323 323 1 17 494 0 385 386 4
93 43 140 256 0 0 -17 146 0 385 493 448 144 160 219 0 491 +17 448 0 385 146 445
 147 150 243 0 0 -17 150 0 495 496 234 148 448 243 0 242 +15 495 1157 0 496 497
 0 17 496 0 495 163 150 152 242 225 0 0 -17 234 0 495 150 163 147 489 232 0 448
 +17 242 0 194 447 240 148 496 225 0 340 +15 194 244 0 343 193 0 17 447 0 194 49
8 242 77 340 338 0 444 -17 240 0 194 242 237 152 499 238 0 496 +17 237 0 194 240
 343 155 94 218 0 0 +17 499 0 500 166 154 155 240 238 0 237 -15 500 1161 0 499 5
01 0 17 166 0 500 231 499 164 157 248 0 502 -17 154 0 500 499 231 152 163 246 0
 240 +17 231 0 500 154 166 161 502 229 0 489 +17 163 0 495 234 496 161 154 246 0
 231 -17 502 0 486 503 489 164 231 229 0 228 -17 489 0 486 502 160 161 234 232 0
 0 -17 503 0 486 143 502 151 228 224 0 384 -17 228 0 504 157 168 164 503 224 0 0
 +15 504 1165 0 94 505 0 17 157 0 504 94 228 155 166 248 0 499 +17 168 0 504 228
 94 151 251 235 0 503 -17 94 0 504 168 157 92 237 218 0 251 -17 251 0 385 506 38
4 92 168 235 0 330 +17 506 0 385 507 251 122 330 328 0 0 -17 330 0 405 508 346 9
2 506 328 0 343 +15 405 240 0 508 394 0 17 508 0 405 463 330 98 343 341 0 498 -1
7 346 0 405 330 463 122 471 344 0 506 +17 343 0 194 237 498 92 508 341 0 0 +17 4
98 0 194 343 447 98 97 315 0 0 -17 97 0 440 65 100 77 498 315 0 447 +17 65 0 440
 321 97 63 444 317 0 382 +17 100 0 440 97 312 98 463 313 0 508 +17 463 0 405 346
 508 101 100 313 0 0 -17 471 0 509 470 124 101 346 344 0 312 -15 509 347 0 124 5
10 0 17 470 0 509 511 471 115 103 297 0 0 -17 124 0 509 471 290 122 507 273 0 34
6 +17 290 0 509 124 511 112 512 284 0 507 +17 507 0 385 513 506 112 124 273 0 0
 -17 513 0 385 457 507 116 114 278 0 0 -17 457 0 385 416 513 119 118 286 0 0 -17
 114 0 514 512 293 112 513 278 0 290 +15 514 356 0 114 515 0 17 512 0 514 516 11
4 111 290 284 0 511 -17 293 0 514 114 516 116 474 291 0 513 +17 516 0 514 293 51
2 128 127 282 0 0 -17 474 0 472 469 118 128 293 291 0 516 -17 118 0 472 474 349
 116 457 286 0 293 +17 127 0 517 276 130 111 516 282 0 512 +15 517 359 0 276 518
 0 17 276 0 517 133 127 115 511 274 0 470 +17 130 0 517 127 133 128 469 280 0 47
4 +17 133 0 517 130 276 131 135 277 0 467 +17 135 0 466 103 467 115 133 277 0 27
6 -17 511 0 509 290 470 111 276 274 0 0 -14 518 357 519 ?461 515 517 5 520 +0 0
 461 515 23 81 1 519 2658 396 518 521 0 484 522 523 14 461 777 522 ?524 518 459
 5 525 -0 0 524 518 23 14 515 354 526 ?518 473 514 5 527 -0 0 518 473 23 50 520
 370 0 518 525 527 0 +0 0 .635 0 0 1 1 0 0 50 525 818 0 461 528 520 0 +.68809381
3572336 .3168448823797415 .1016 -902636680855403e-31 1 0 -1 -902636680855403e-31
 0 50 527 368 0 515 520 529 0 +.8219694 194694268781174e-30 .635 -12246467991473
5e-30 1 0 -1 -122464679914735e-30 0 50 529 367 0 473 527 530 0 +.762 18735013540
5495e-30 .635 1 0 0 0 0 -1 14 473 351 531 ?515 510 472 5 529 -0 0 515 510 23 50
 530 366 0 468 529 532 0 +.8219694 .0599694 .635 1157072424254242e-31 -1 0 1 115
7072424254242e-31 0 14 468 342 533 ?510 400 466 5 530 -0 0 510 400 23 50 532 365
 0 510 530 534 0 +.8219694 194694268781174e-30 .635 -1 0 0 0 0 1 14 510 345 535
 ?473 468 509 5 532 -0 0 473 468 23 50 534 270 0 400 532 402 0 +0 0 .1016 0 0 -1
 -1 0 0 14 400 253 536 ?468 393 537 5 534 -0 0 468 393 23 50 402 267 0 393 534 3
95 0 +-.0599694 .0599694 .1016 .88792447244681 -.45998927295107 0 .4599892729510
7 .88792447244681 0 81 1 536 2664 396 400 538 0 535 539 540 15 537 914 0 258 400
 440 17 258 0 537 108 309 54 541 255 0 0 +17 108 0 537 106 258 91 56 304 0 487 +
17 309 0 537 258 106 51 542 307 0 541 +17 541 0 543 263 266 51 258 255 0 0 -15 5
43 788 0 140 524 0 17 263 0 543 140 541 43 53 259 0 494 +17 266 0 543 541 140 54
 492 264 0 258 +17 140 0 543 266 263 138 494 256 0 493 +17 53 0 436 542 47 51 26
3 259 0 309 -15 436 633 0 53 429 0 17 542 0 436 352 53 104 309 307 0 0 -17 47 0
 436 53 352 43 386 326 0 263 +17 352 0 436 47 542 141 490 350 0 386 +17 386 0 38
5 384 494 141 47 326 0 0 -17 490 0 486 487 143 104 352 350 0 542 -17 143 0 486 4
90 503 141 384 226 0 352 -14 524 785 539 ?497 461 543 5 528 -0 0 497 461 23 81 1
 539 2665 396 524 544 0 536 545 546 14 497 1154 545 ?501 524 495 5 547 +0 0 501
 524 23 50 528 820 0 524 548 525 0 +.08477377 .3393694 .1016 3753410273556335e-3
1 -1 0 1 3753410273556335e-31 0 50 548 1175 0 505 549 528 0 +.530740058052968 .5
679694 0 .990406396491439 0 -.138185273415234 -.138185273415234 0 -.990406396491
439 14 505 1162 550 ?551 501 504 5 548 +0 0 551 501 23 51 255 549 1176 0 501 547
 548 0 +.380128499026484 .5679694 -.5226934527983 0 1 0 .0769381137580917 0 0 1
 14 501 1158 552 ?505 497 500 5 549 +0 0 505 497 23 50 547 1177 0 497 553 549 0
 +.22951694 .5679694 0 -.990406396491439 0 -.138185273415234 -.138185273415234 0
 .990406396491439 67 255 553 1611 0 551 554 547 0 +555 0 1 0 .0617072041801801 1
4 551 1571 556 ?178 505 36 5 553 -0 0 178 505 23 50 554 1612 0 190 557 553 0 +.3
1663894 0 0 0 0 1 1 0 0 134 555 1629 0 1 558 559 560 +561 562 31 558 1915 0 563
 25 555 0 +.380128499026484 .7203694 -.5226934527983 0 1 0 0 0 1 .0508 134 559 1
627 0 1 555 200 564 +565 566 141 255 560 553 560 560 555 136 561 3 7 3 5 6 FFF1
 567 568 569 135 562 2 0 45 21 567 .38013894 0 -.469395677589399 .33278833227133
35 0 -.454141623855723 .3667784449169155 0 -.3821462436583265 .2981289885032075
 0 -.2960762486801165 .347402357409537 0 -.15381005242292 .2261849136225865 0 -.
0732725503091512 .31663894 0 0 127 5 568 4 1 1 1 4 128 5 569 0 .1968357559262225
 .382012664228107 .596477964953927 1 134 200 1626 0 40 559 192 0 +570 571 141 56
4 557 564 564 559 136 565 3 7 3 5 6 FFF1 572 573 574 135 566 2 0 45 21 572 .4436
3894 0 0 .534092966377413 0 -.0732725503091512 .412875522590463 0 -.153810052422
92 .462148891496792 0 -.2960762486801165 .393499435083084 0 -.3821462436583265 .
427489547728666 0 -.454141623855723 .38013894 0 -.4693956775894 127 5 573 4 1 1
 1 4 128 5 574 0 .403522035046073 .617987335771893 .803164244073778 1 67 557 161
3 0 178 575 554 0 +559 0 1 0 .0617072041801787 14 178 1575 576 ?190 551 176 5 55
7 -0 0 190 551 23 51 575 1911 0 390 577 557 0 -.380128499026484 .7203694 -.52269
34527983 0 -1 0 .0508 0 0 -1 14 390 1898 578 ?579 190 580 5 575 -0 0 579 190 23
 50 577 1913 0 579 581 575 0 +.380128499026484 .7203694 -.5226934527983 0 1 0 0
 0 1 14 579 1903 582 ?583 390 584 5 577 +0 0 583 390 23 51 581 2097 0 583 585 57
7 0 -.380128499026484 .7457694 -.5226934527983 0 -1 0 .0127 0 0 -1 14 583 2084 5
86 ?587 579 588 5 581 -0 0 587 579 23 50 585 2099 0 587 0 581 0 +.38012849902648
4 .7457694 -.5226934527983 0 1 0 0 0 1 14 587 2089 589 ?0 583 590 5 585 +0 0 0 5
83 23 81 1 589 2674 396 587 591 0 586 592 593 15 590 2091 0 594 587 0 17 594 0 5
90 594 594 0 595 596 0 0 +17 595 0 588 595 595 0 594 596 0 0 -16 596 2081 0 ?594
 563 0 597 0 0 1 16 563 1895 0 ?598 40 596 558 0 0 1 31 597 2101 0 596 0 25 0 +.
380128499026484 .7457694 -.5226934527983 0 1 0 0 0 1 .0127 31 25 2100 0 10 597 5
58 0 +.380128499026484 .7203694 -.5226934527983 0 1 0 0 0 1 .0127 17 598 0 599 5
98 598 0 600 563 0 0 +16 40 1549 0 ?34 189 563 200 0 0 1 15 599 1905 0 598 579 0
 17 600 0 580 600 600 0 598 563 0 0 -15 580 1901 0 600 390 388 15 588 2087 0 595
 583 601 15 601 2088 0 24 583 0 17 24 0 601 24 24 0 602 10 0 0 +17 602 0 584 602
 602 0 24 10 0 0 -15 584 2073 0 602 579 599 80 255 1 396 603 604 9000 1 1 1 1 1
 1 1 1 0 FFFFTFTFFFFFFF1 81 1 591 2571 605 587 0 589 606 0 607 81 1 586 2673 396
 583 606 0 582 589 608 81 1 592 2675 396 190 609 0 589 0 610 82 255 1 593 -97845
2337 14 190 1579 592 ?390 178 28 5 554 -0 0 390 178 23 81 1 609 2567 605 190 0 5
92 611 612 613 82 1 610 1026687113 80 1 605 0 614 8001 0 0 0 0 3 5 0 0 0 FFFFTFT
FFFFFFF2 81 1 611 2566 605 178 0 576 615 609 616 81 1 612 2568 605 390 0 578 609
 617 618 83 255 3 613 .792156862745098 .819607843137255 .933333333333333 81 1 57
8 2671 396 390 612 0 576 582 619 81 1 617 2569 605 579 0 582 612 606 620 83 3 61
8 .792156862745098 .819607843137255 .933333333333333 81 1 582 2672 396 579 617 0
 578 586 621 81 1 606 2570 605 583 0 586 617 591 622 83 3 620 .792156862745098 .
819607843137255 .933333333333333 83 3 622 .792156862745098 .819607843137255 .933
333333333333 82 1 621 -2101804913 81 1 576 2670 396 178 611 0 556 578 623 82 1 6
19 -2099838836 81 1 556 2669 396 551 615 0 552 576 624 82 1 623 1027539081 81 1
 615 2565 605 551 0 556 625 611 626 81 1 552 2668 396 501 627 0 550 556 628 82 1
 624 1028063369 81 1 627 2563 605 501 0 552 629 625 630 81 1 550 2667 396 505 62
5 0 545 552 631 82 1 628 1998848132 81 1 625 2564 605 505 0 550 627 615 632 81 1
 545 2666 396 497 629 0 539 550 633 82 1 631 1998979204 81 1 629 2562 605 497 0
 545 544 627 634 82 1 633 1998717060 81 1 544 2561 605 524 0 539 635 629 636 83
 3 634 .792156862745098 .819607843137255 .933333333333333 81 1 635 2560 605 461
 0 522 521 544 637 83 3 636 .792156862745098 .819607843137255 .933333333333333 8
1 1 522 2659 396 461 635 0 519 526 638 81 1 521 2559 605 518 0 519 639 635 640 8
3 3 637 .792156862745098 .819607843137255 .933333333333333 81 1 639 2558 605 515
 0 526 641 521 642 83 3 640 .792156862745098 .819607843137255 .933333333333333 8
1 1 526 2660 396 515 639 0 522 531 643 81 1 641 2557 605 473 0 531 644 639 645 8
3 3 642 .792156862745098 .819607843137255 .933333333333333 81 1 531 2661 396 473
 641 0 526 533 646 81 1 644 2556 605 510 0 535 647 641 648 83 3 645 .79215686274
5098 .819607843137255 .933333333333333 81 1 535 2663 396 510 644 0 533 536 649 8
1 1 647 2555 605 468 0 533 538 644 650 83 3 648 .792156862745098 .81960784313725
5 .933333333333333 81 1 533 2662 396 468 647 0 531 535 651 81 1 538 2554 605 400
 0 536 652 647 653 83 3 650 .792156862745098 .819607843137255 .933333333333333 8
1 1 652 2553 605 393 0 398 397 538 654 83 3 653 .792156862745098 .81960784313725
5 .933333333333333 81 1 398 2645 396 393 652 0 392 403 655 81 1 397 2552 605 193
 0 392 656 652 657 83 3 654 .792156862745098 .819607843137255 .933333333333333 8
1 1 656 2551 605 394 0 403 483 397 658 83 3 657 .792156862745098 .81960784313725
5 .933333333333333 81 1 403 2646 396 394 656 0 398 407 659 81 1 483 2550 605 404
 0 481 660 656 661 83 3 658 .792156862745098 .819607843137255 .933333333333333 8
1 1 660 2549 605 419 0 484 662 483 663 83 3 661 .792156862745098 .81960784313725
5 .933333333333333 81 1 484 2657 396 419 660 0 481 519 664 81 1 662 2548 605 420
 0 422 665 660 666 83 3 663 .792156862745098 .819607843137255 .933333333333333 8
1 1 422 2649 396 420 662 0 411 425 667 81 1 665 2547 605 423 0 425 668 662 669 8
3 3 666 .792156862745098 .819607843137255 .933333333333333 81 1 425 2650 396 423
 665 0 422 428 670 81 1 668 2546 605 18 0 431 430 665 671 83 3 669 .792156862745
098 .819607843137255 .933333333333333 81 1 431 2652 396 18 668 0 428 434 672 81
 1 430 2545 605 427 0 428 673 668 674 83 3 671 .792156862745098 .819607843137255
 .933333333333333 81 1 673 2544 605 429 0 434 476 430 675 83 3 674 .792156862745
098 .819607843137255 .933333333333333 81 1 434 2653 396 429 673 0 431 475 676 81
 1 476 2543 605 435 0 475 677 673 678 83 3 675 .792156862745098 .819607843137255
 .933333333333333 81 1 677 2542 605 413 0 477 679 476 680 83 3 678 .792156862745
098 .819607843137255 .933333333333333 81 1 477 2655 396 413 677 0 475 481 681 81
 1 679 2541 605 408 0 411 410 677 682 83 3 680 .792156862745098 .819607843137255
 .933333333333333 81 1 411 2648 396 408 679 0 407 422 683 81 1 410 2540 605 16 0
 407 0 679 684 83 3 682 .792156862745098 .819607843137255 .933333333333333 83 3
 684 .792156862745098 .819607843137255 .933333333333333 82 1 683 847446145 82 1
 681 846987396 82 1 676 845414532 82 1 672 -1352728450 82 1 670 -1353252738 82 1
 667 -1353514885 82 1 664 -1360068485 82 1 659 -1104543612 82 1 655 -1104281468
 82 1 651 -1088487298 82 1 649 -1092419458 82 1 646 -1092091778 82 1 643 -109182
9634 82 1 638 839057545 83 3 632 .792156862745098 .819607843137255 .933333333333
333 83 3 630 .792156862745098 .819607843137255 .933333333333333 83 3 626 .792156
862745098 .819607843137255 .933333333333333 83 3 616 .792156862745098 .819607843
137255 .933333333333333 79 255 15 614 SDL/TYSA_COLOUR82 1 608 -976486257 83 3 60
7 .792156862745098 .819607843137255 .933333333333333 79 14 604 SWEntUnchanged136
 570 3 7 3 5 6 FFF1 685 686 687 135 571 2 0 45 21 685 .38013894 .6187694 -.46939
5677589399 .3327883322713335 .6187694 -.454141623855723 .3667784449169155 .61876
94 -.3821462436583265 .2981289885032075 .6187694 -.2960762486801165 .34740235740
9537 .6187694 -.15381005242292 .2261849136225865 .6187694 -.0732725503091512 .31
663894 .6187694 0 127 5 686 4 1 1 1 4 128 5 687 0 .1968357559262225 .38201266422
8107 .596477964953927 1 15 36 1574 0 38 551 0 17 38 0 36 34 170 173 179 185 0 17
7 +17 170 0 36 38 37 158 217 210 0 179 -17 179 0 176 33 177 158 38 185 0 182 -17
 37 0 36 170 34 171 41 186 0 217 -17 217 0 482 184 182 171 170 210 0 0 +17 184 0
 482 182 217 11 29 204 0 0 +17 29 0 28 41 26 171 184 204 0 37 -82 1 546 83617396
1 17 106 0 537 309 108 104 487 303 0 490 +16 304 548 0 ?108 300 331 298 300 300
 1 82 1 540 -1103888255 82 1 523 -1091567490 82 1 485 -1105198967 82 1 478 84587
3281 17 373 0 433 76 453 67 452 367 0 450 +82 1 432 -1097990018 82 1 412 2003239
049 82 1 399 -1104412532 19 17 100 0 1 0 9 5 S0 74 4 CI16 index_map_offset0 0 1
 dCCZ20 15 9 0 0 592 688 689 690 691 692 13 591 2 0 0 0 0 0 0 0 0 0 0 0 81 2 688
 2104 693 1 0 689 0 0 0 694 81 2 689 2108 695 1 688 690 0 0 0 696 81 1 690 2112
 697 1 689 691 0 0 698 81 2 691 2146 699 1 690 692 0 0 700 0 81 2 692 2260 701 1
 691 13 0 0 0 702 81 2 13 2537 703 1 692 2 0 0 0 0 80 2 703 704 705 9000 0 0 0 0
 3 5 0 0 0 FFTFFFFFFFFFFF9 1 79 16 705 BODY_RECIPE_200180 2 701 706 707 9000 0 0
 0 0 3 5 0 0 0 FFTFFFFFFFFFFF9 1 82 1 702 1 79 24 707 BODY_IN_LIGHTWEIGHT_PERM80
 2 699 708 709 8004 0 0 0 0 3 5 0 0 0 FFTFFFFFFFFFFF2 3 83 1 700 1 79 16 709 SDL
/TYSA_DENSITY80 1 697 710 711 9000 1 1 1 1 1 1 1 1 0 FFTFFFFFFFFFFF1 82 1 698 44
781 79 10 711 BODY_MATCH80 2 695 712 713 9000 0 0 0 0 3 5 0 0 0 FFTFFFFFFFFFFF9
 1 82 1 696 238 79 30 713 LAST_BODY_MODIFYING_FEATURE_ID80 2 693 714 715 9000 0
 0 0 0 3 5 0 0 0 FFTFFFFFFFFFFT9 1 82 1 694 126 79 19 715 ENT_TIME_STAMP_200180
 2 12 716 717 9000 0 0 0 0 3 5 0 0 0 FFTFFFFFFFFFFF9 1 82 1 14 108 79 12 717 ATO
M_ID_20011 0 
