**ABCDEFGHIJKLMNOPQRSTUVWXYZabcdefghijklmnopqrstuvwxyz**************************
**PARASOLID !"#$%&'()*+,-./:;<=>?@[\]^_`{|}~0123456789**************************
**PART1;
MC=AMD64;
MC_MODEL=Intel64 Family 6 Model 78 Stepping 3, GenuineIntel;
MC_ID=unknown;
OS=Windows_NT;
OS_RELEASE=unknown;
FRU=Parasolid Version 31.1, build 278,  7-15-2019;
APPL=SOLIDWORKS 2020-2019269;
SITE=;
USER=unknown;
FORMAT=text;
GUISE=transmit;
KEY=OVERHEAD;
FILE=OVERHEAD.x_t;
DATE=Sun Aug  8 16:04:47 2021;
**PART2;
SCH=SCH_3101278_31100;
USFLD_SIZE=0;
**PART3;
**END_OF_HEADER*****************************************************************
T51 : TRANSMIT FILE created by modeller version 310127823 SCH_3101278_31100_1300
6222 0 12 34 CCCCCCI4 mesh1006 0 I8 polyline1008 0 CCCCCCCDI5 owner1040 0 CCCCCC
I13 boundary_mesh1006 0 I17 boundary_polyline1008 0 CCCA16 index_map_offset0 0 1
 dA9 index_map82 0 A17 node_id_index_map82 0 A20 schema_embedding_map82 0 A5 chi
ld12 0 A14 lowest_node_id0 0 1 dA16 mesh_offset_data206 0 Z1 588 2 3 0 0 0 0 0 0
 1e3 1e-8 0 4 0 1 0 1 1 5 6 7 8 0 0 9 10 11 0 0 0 0 0 0 0 81 255 2 2 574 12 1 13
 0 0 0 0 14 70 11 CI9 list_type0 0 1 uI10 notransmit0 0 1 lCCCDCCDI12 finger_ind
ex0 0 1 dI12 finger_block1012 0 CZ3 0 4 T1 0 0 9 20 1 15 15 13 255 5 309 0 1 0 1
6 0 0 17 0 50 255 6 294 0 16 18 0 0 +-.508 .414834481954094 .1524 1 0 0 0 0 -1 3
0 255 7 308 0 10 19 0 0 +-.508 .313234481954094 .1524 0 0 -1 29 255 8 225 0 20 2
1 0 -.508 .414834481954094 0 19 8 CCCCCCCA5 owner12 0 Z9 103 0 1 17 0 22 V0 16 2
55 10 252 0 ?23 0 24 7 0 0 1 18 255 11 100 0 25 0 26 27 ?1 17 255 25 0 28 29 30
 11 31 32 0 33 +18 26 97 0 30 11 34 35 ?1 29 27 102 0 11 35 36 -.508 .4148344819
54094 .1524 29 35 99 0 26 37 27 -.4572 .414834481954094 .1524 29 36 238 0 38 27
 39 -.508 .313234481954094 0 18 38 209 0 40 41 0 36 ?1 29 39 237 0 41 36 42 -.43
928517876002 .313234481954094 0 18 41 208 0 43 44 38 39 ?1 29 42 236 0 44 39 45
 -.31228517876002 .359458701705902 0 18 44 207 0 46 47 41 42 ?1 29 45 234 0 47 4
2 48 .308166162119811 .359458701705902 0 18 47 205 0 49 50 44 45 ?1 29 48 233 0
 50 45 51 .435166162119811 .313234481954094 0 18 50 204 0 52 53 47 48 ?1 29 51 2
32 0 53 48 54 .503880983359791 .313234481954094 0 18 53 203 0 55 56 50 51 ?1 29
 54 231 0 56 51 57 .503880983359791 .414834481954094 0 18 56 202 0 58 59 53 54 ?
1 29 57 230 0 59 54 60 .453080983359791 .414834481954094 0 18 59 201 0 61 62 56
 57 ?1 29 60 229 0 62 57 63 .326080983359791 .461058701705902 0 18 62 200 0 64 6
5 59 60 ?1 29 63 227 0 65 60 21 -.3302 .461058701705902 0 18 65 198 0 66 67 62 6
3 ?1 29 21 226 0 67 63 8 -.4572 .414834481954094 0 18 67 197 0 68 20 65 21 ?1 17
 68 0 69 70 71 67 72 73 0 74 +18 20 196 0 75 76 67 8 ?1 17 75 0 77 33 74 20 78 7
9 0 80 +18 76 61 0 81 82 20 83 ?1 17 81 0 84 23 85 76 86 87 0 29 -18 82 64 0 86
 88 76 89 ?1 29 83 63 0 76 0 89 -.508 .313234481954094 .1524 29 89 66 0 82 83 90
 -.43928517876002 .313234481954094 .1524 29 90 69 0 88 89 91 -.31228517876002 .3
59458701705902 .1524 18 88 67 0 92 93 82 90 ?1 29 91 75 0 93 90 94 .308166162119
811 .359458701705902 .1524 18 93 73 0 95 96 88 91 ?1 29 94 78 0 96 91 97 .435166
162119811 .313234481954094 .1524 18 96 76 0 98 99 93 94 ?1 29 97 81 0 99 94 100
 .503880983359791 .313234481954094 .1524 18 99 79 0 101 102 96 97 ?1 29 100 84 0
 102 97 103 .503880983359791 .414834481954094 .1524 18 102 82 0 104 105 99 100 ?
1 29 103 87 0 105 100 106 .453080983359791 .414834481954094 .1524 18 105 85 0 10
7 108 102 103 ?1 29 106 90 0 108 103 37 .326080983359791 .461058701705902 .1524
 18 108 88 0 109 34 105 106 ?1 29 37 96 0 34 106 35 -.3302 .461058701705902 .152
4 18 34 94 0 110 26 108 37 ?1 17 110 0 28 30 109 34 111 112 0 113 +15 255 28 4 0
 29 114 0 17 30 0 28 25 110 26 115 116 0 70 +17 109 0 28 110 107 108 117 118 0 1
19 +17 111 0 120 121 113 108 110 112 0 0 -16 112 45 0 ?110 116 118 122 0 0 1 17
 113 0 120 111 66 34 71 123 0 115 -15 120 257 0 66 124 0 17 66 0 120 113 121 65
 64 125 0 71 +17 71 0 69 68 115 65 113 123 0 72 +16 123 241 0 ?71 126 127 128 0
 0 1 17 115 0 69 71 70 34 30 116 0 0 -15 69 255 0 68 129 0 17 70 0 69 115 68 26
 74 127 0 31 -16 116 53 0 ?30 32 112 130 0 0 1 16 32 57 0 ?25 131 116 132 0 0 1
 30 130 55 0 116 122 132 0 +-.4572 .414834481954094 .1524 -.939692620785908 -.34
20201433256695 0 30 122 47 0 112 133 130 0 +.184406307368992 .461058701705902 .1
524 -1 0 0 30 132 59 0 32 130 134 0 +-.508 .414834481954094 .1524 -1 0 0 30 134
 224 0 135 132 136 0 +-.508 .414834481954094 0 0 -1 0 16 135 192 0 ?137 138 0 13
4 0 0 1 30 136 223 0 138 134 139 0 +-.508 .313234481954094 0 1 0 0 16 138 188 0
 ?43 140 135 136 0 0 1 30 139 222 0 140 136 141 0 +-.43928517876002 .31323448195
4094 0 .939692620785908 .3420201433256695 0 16 140 184 0 ?142 143 138 139 0 0 1
 30 141 220 0 143 139 144 0 +.184406307368992 .359458701705902 0 1 0 0 16 143 17
6 0 ?49 145 140 141 0 0 1 30 144 219 0 145 141 146 0 +.435166162119811 .31323448
1954094 0 .939692620785908 -.3420201433256695 0 16 145 172 0 ?52 147 143 144 0 0
 1 30 146 218 0 147 144 148 0 +.503880983359791 .313234481954094 0 1 0 0 16 147
 168 0 ?55 149 145 146 0 0 1 30 148 217 0 149 146 150 0 +.503880983359791 .41483
4481954094 0 0 1 0 16 149 164 0 ?58 151 147 148 0 0 1 30 150 216 0 151 148 152 0
 +.503880983359791 .414834481954094 0 -1 0 0 16 151 160 0 ?61 153 149 150 0 0 1
 30 152 215 0 153 150 154 0 +.453080983359791 .414834481954094 0 -.9396926207859
08 .3420201433256695 0 16 153 156 0 ?155 125 151 152 0 0 1 30 154 213 0 125 152
 156 0 +-.3302 .461058701705902 0 -1 0 0 16 125 148 0 ?66 73 153 154 0 0 1 30 15
6 212 0 73 154 157 0 +-.4572 .414834481954094 0 -.939692620785908 -.342020143325
6695 0 16 73 144 0 ?68 79 125 156 0 0 1 30 157 211 0 79 156 158 0 +-.508 .414834
481954094 0 -1 0 0 16 79 140 0 ?75 159 73 157 0 0 1 30 158 295 0 131 157 160 0 +
-.508 .414834481954094 .1524 0 0 -1 16 131 239 0 ?80 127 32 158 0 0 1 30 160 296
 0 127 158 128 0 +-.4572 .414834481954094 .1524 0 0 -1 16 127 240 0 ?74 123 131
 160 0 0 1 30 128 297 0 123 160 161 0 +-.3302 .461058701705902 .1524 0 0 -1 30 1
61 299 0 126 128 162 0 +.326080983359791 .461058701705902 .1524 0 0 -1 16 126 24
3 0 ?121 163 123 161 0 0 1 30 162 300 0 163 161 164 0 +.453080983359791 .4148344
81954094 .1524 0 0 -1 16 163 244 0 ?165 166 126 162 0 0 1 30 164 301 0 166 162 1
67 0 +.503880983359791 .414834481954094 .1524 0 0 -1 16 166 245 0 ?168 169 163 1
64 0 0 1 30 167 302 0 169 164 170 0 +.503880983359791 .313234481954094 .1524 0 0
 -1 16 169 246 0 ?171 172 166 167 0 0 1 30 170 303 0 172 167 173 0 +.43516616211
9811 .313234481954094 .1524 0 0 -1 16 172 247 0 ?174 175 169 170 0 0 1 30 173 30
4 0 175 170 176 0 +.308166162119811 .359458701705902 .1524 0 0 -1 16 175 248 0 ?
177 178 172 173 0 0 1 30 176 306 0 178 173 19 0 +-.31228517876002 .3594587017059
02 .1524 0 0 -1 16 178 250 0 ?179 24 175 176 0 0 1 30 19 307 0 24 176 7 0 +-.439
28517876002 .313234481954094 .1524 0 0 -1 16 24 251 0 ?180 10 178 19 0 0 1 17 18
0 0 181 142 182 41 85 24 0 183 +15 181 275 0 142 184 0 17 142 0 181 185 180 44 1
83 140 0 179 +17 182 0 181 180 185 82 92 186 0 0 -17 85 0 84 81 43 82 180 24 0 1
82 -17 183 0 187 40 46 41 142 140 0 0 -15 187 139 0 188 189 0 17 40 0 187 188 18
3 38 43 138 0 23 -17 46 0 187 183 190 44 49 143 0 142 -17 190 0 187 46 191 47 52
 145 0 0 -17 49 0 192 193 179 47 46 143 0 177 +15 192 271 0 49 194 0 17 193 0 19
2 195 49 93 177 175 0 196 -17 179 0 192 49 195 44 185 178 0 0 +17 177 0 197 52 1
96 47 193 175 0 190 +15 197 269 0 52 198 0 17 52 0 197 199 177 50 190 145 0 174
 +17 196 0 197 177 199 93 98 200 0 0 -17 199 0 197 196 52 96 174 172 0 201 -17 9
8 0 28 101 95 96 196 200 0 199 +16 200 25 0 ?98 202 203 204 0 0 1 16 202 29 0 ?1
01 205 200 206 0 0 1 16 203 17 0 ?95 200 186 207 0 0 1 30 204 27 0 200 207 206 0
 +.435166162119811 .313234481954094 .1524 .939692620785908 -.3420201433256695 0
 30 207 19 0 203 208 204 0 +-.31228517876002 .359458701705902 .1524 1 0 0 30 206
 31 0 202 204 209 0 +.503880983359791 .313234481954094 .1524 1 0 0 30 209 35 0 2
05 206 210 0 +.503880983359791 .414834481954094 .1524 0 1 0 16 205 33 0 ?104 211
 202 209 0 0 1 30 210 39 0 211 209 133 0 +.503880983359791 .414834481954094 .152
4 -1 0 0 16 211 37 0 ?107 118 205 210 0 0 1 30 133 43 0 118 210 122 0 +.45308098
3359791 .414834481954094 .1524 -.939692620785908 .3420201433256695 0 16 118 41 0
 ?109 112 211 133 0 0 1 17 107 0 28 109 104 105 212 211 0 213 +17 104 0 28 107 1
01 102 214 205 0 215 +17 212 0 216 168 213 102 107 211 0 0 -17 213 0 216 212 61
 105 165 163 0 117 -15 216 263 0 61 217 0 17 61 0 216 213 168 59 218 151 0 165 +
17 165 0 219 155 117 59 213 163 0 220 +17 117 0 219 165 119 105 109 118 0 0 -15
 219 261 0 155 221 0 17 119 0 219 117 155 108 121 126 0 111 -17 155 0 219 119 16
5 62 220 153 0 121 +17 121 0 120 66 111 62 119 126 0 0 +17 220 0 187 218 64 59 1
55 153 0 0 -17 218 0 187 222 220 56 61 151 0 0 -17 64 0 187 220 72 62 66 125 0 1
55 -17 72 0 187 64 78 65 68 73 0 0 -17 78 0 187 72 188 67 75 79 0 0 -17 188 0 18
7 78 40 20 137 135 0 0 -17 137 0 223 224 80 38 188 135 0 0 +15 223 279 0 137 16
 0 17 224 0 223 225 137 76 23 10 0 0 -17 80 0 223 137 225 20 33 131 0 188 +17 22
5 0 223 80 224 11 29 159 0 0 -17 33 0 77 31 75 11 80 131 0 225 -15 77 253 0 75 2
26 0 17 31 0 77 74 33 26 25 32 0 0 -17 74 0 77 75 31 67 70 127 0 78 +14 255 226
 254 227 ?114 129 77 5 228 -0 0 114 129 22 81 1 227 575 229 226 230 0 0 231 232
 14 114 1 231 ?189 226 28 5 233 +0 0 189 226 22 14 129 256 234 ?226 124 69 5 235
 -0 0 226 124 22 50 228 281 0 226 236 235 0 +-.508 .414834481954094 .1524 0 -1 0
 0 0 -1 13 22 104 0 0 0 0 0 0 9 16 14 16 280 237 ?238 0 223 5 6 -0 0 238 0 22 81
 1 237 578 229 16 239 0 234 240 241 14 238 278 240 ?184 16 84 5 18 -0 0 184 16 2
2 81 1 240 579 229 238 242 0 237 243 244 14 184 276 243 ?194 238 181 5 245 -0 0
 194 238 22 15 84 277 0 43 238 0 50 18 293 0 238 245 6 0 +-.508 .313234481954094
 .1524 0 1 0 0 0 1 50 245 292 0 184 246 18 0 +-.43928517876002 .313234481954094
 .1524 -.3420201433256695 .939692620785908 0 -.939692620785908 -.342020143325669
5 0 50 246 290 0 194 247 245 0 +.184406307368992 .359458701705902 .1524 0 1 0 0
 0 1 14 194 272 248 ?198 184 192 5 246 -0 0 198 184 22 50 247 289 0 198 249 246
 0 +.435166162119811 .313234481954094 .1524 .3420201433256695 .939692620785908 0
 -.939692620785908 .3420201433256695 0 14 198 270 250 ?251 194 197 5 247 -0 0 25
1 194 22 50 249 288 0 251 252 247 0 +.503880983359791 .313234481954094 .1524 0 1
 0 0 0 1 14 251 268 253 ?254 198 255 5 249 -0 0 254 198 22 50 252 287 0 254 256
 249 0 +.503880983359791 .414834481954094 .1524 -1 0 0 0 0 1 14 254 266 257 ?217
 251 258 5 252 -0 0 217 251 22 50 256 286 0 217 259 252 0 +.503880983359791 .414
834481954094 .1524 0 -1 0 0 0 -1 14 217 264 260 ?221 254 216 5 256 -0 0 221 254
 22 50 259 285 0 221 261 256 0 +.453080983359791 .414834481954094 .1524 -.342020
1433256695 -.939692620785908 0 .939692620785908 -.3420201433256695 0 14 221 262
 262 ?124 217 219 5 259 -0 0 124 217 22 50 261 283 0 124 235 259 0 +-.3302 .4610
58701705902 .1524 0 -1 0 0 0 -1 14 124 258 263 ?129 221 120 5 261 -0 0 129 221 2
2 50 235 282 0 129 228 261 0 +-.4572 .414834481954094 .1524 .3420201433256695 -.
939692620785908 0 .939692620785908 .3420201433256695 0 81 1 263 587 229 124 264
 0 262 265 266 80 255 1 229 267 268 9000 1 1 1 1 1 1 1 1 0 FFFFTFTFFFFFFF1 81 1
 264 538 269 124 0 263 270 271 272 81 1 262 586 229 221 270 0 260 263 273 81 1 2
65 588 229 189 274 0 263 0 275 82 255 1 266 2019098773 14 189 138 265 ?0 114 187
 5 236 -0 0 0 114 22 81 1 274 542 269 189 0 265 276 0 277 82 1 275 2015690901 80
 1 269 0 278 8001 0 0 0 0 3 5 0 0 0 FFFFTFTFFFFFFF2 81 1 276 541 269 114 0 231 2
30 274 279 83 255 3 277 .647058823529412 .619607843137255 .588235294117647 81 1
 231 576 229 114 276 0 227 234 280 81 1 230 540 269 226 0 227 271 276 281 83 3 2
79 .647058823529412 .619607843137255 .588235294117647 81 1 271 539 269 129 0 234
 264 230 282 83 3 281 .792156862745098 .819607843137255 .933333333333333 81 1 23
4 577 229 129 271 0 231 237 283 83 3 282 .647058823529412 .619607843137255 .5882
35294117647 82 1 283 2018836629 82 1 280 1998258325 79 255 15 278 SDL/TYSA_COLOU
R50 236 210 0 189 233 228 0 +0 0 0 0 0 1 1 0 0 50 233 3 0 114 0 236 0 +0 0 .1524
 0 0 1 1 0 0 81 1 270 537 269 221 0 262 284 264 285 81 1 260 585 229 217 284 0 2
57 262 286 82 1 273 2019623061 81 1 284 536 269 217 0 260 287 270 288 81 1 257 5
84 229 254 287 0 253 260 289 82 1 286 2019885205 81 1 287 535 269 254 0 257 290
 284 291 81 1 253 583 229 251 290 0 250 257 292 82 1 289 2020147349 81 1 290 534
 269 251 0 253 293 287 294 81 1 250 582 229 198 293 0 248 253 295 82 1 292 20204
09493 81 1 293 533 269 198 0 250 296 290 297 81 1 248 581 229 194 296 0 243 250
 298 82 1 295 2020671637 81 1 296 532 269 194 0 248 299 293 300 81 1 243 580 229
 184 299 0 240 248 301 82 1 298 2020933781 81 1 299 531 269 184 0 243 242 296 30
2 82 1 301 2021458069 81 1 242 530 269 238 0 240 239 299 303 83 3 302 .792156862
745098 .819607843137255 .933333333333333 81 1 239 529 269 16 0 237 0 242 304 83
 3 303 .792156862745098 .819607843137255 .933333333333333 83 3 304 .792156862745
098 .819607843137255 .933333333333333 83 3 300 .792156862745098 .819607843137255
 .933333333333333 83 3 297 .792156862745098 .819607843137255 .933333333333333 83
 3 294 .792156862745098 .819607843137255 .933333333333333 83 3 291 .792156862745
098 .819607843137255 .933333333333333 83 3 288 .792156862745098 .819607843137255
 .933333333333333 83 3 285 .647058823529412 .619607843137255 .588235294117647 83
 3 272 .647058823529412 .619607843137255 .588235294117647 79 14 268 SWEntUnchang
ed15 258 265 0 58 254 0 17 58 0 258 215 171 56 222 149 0 168 +17 215 0 258 214 5
8 102 168 166 0 212 -17 171 0 258 58 214 53 305 169 0 222 +17 222 0 187 191 218
 53 58 149 0 0 -17 168 0 216 61 212 56 215 166 0 218 +17 191 0 187 190 222 50 55
 147 0 0 -17 55 0 255 305 174 53 191 147 0 171 +15 255 267 0 55 251 0 17 305 0 2
55 201 55 99 171 169 0 214 -17 174 0 255 55 201 50 199 172 0 191 +17 201 0 255 1
74 305 96 101 202 0 0 -17 101 0 28 104 98 99 201 202 0 305 +17 214 0 258 171 215
 99 104 205 0 0 -17 43 0 84 85 23 41 40 138 0 180 +17 23 0 84 43 81 38 224 10 0
 137 +82 1 244 2021720213 82 1 241 2021982357 82 1 232 2018574485 17 29 0 28 86
 25 76 225 159 0 224 +16 159 5 0 ?29 87 79 306 0 0 1 16 87 9 0 ?86 186 159 307 0
 0 1 30 306 7 0 159 0 307 0 +-.508 .414834481954094 .1524 0 -1 0 30 307 11 0 87
 306 208 0 +-.508 .313234481954094 .1524 1 0 0 30 208 15 0 186 307 207 0 +-.4392
8517876002 .313234481954094 .1524 .939692620785908 .3420201433256695 0 16 186 13
 0 ?92 203 87 208 0 0 1 17 92 0 28 95 86 88 182 186 0 185 +17 95 0 28 98 92 93 1
95 203 0 193 +17 86 0 28 92 29 82 81 87 0 85 +17 185 0 181 182 142 88 179 178 0
 195 -17 195 0 192 179 193 88 95 203 0 0 -19 17 310 0 1 0 9 5 S0 74 4 CI16 index
_map_offset0 0 1 dCCZ20 15 9 0 0 308 309 265 310 311 312 13 274 2 0 0 0 0 0 0 0
 0 0 0 0 81 2 308 384 313 1 0 309 0 0 0 314 81 2 309 388 315 1 308 310 0 0 0 316
 81 1 310 403 317 1 309 311 0 0 318 81 2 311 420 319 1 310 312 0 0 320 0 81 2 31
2 485 321 1 311 13 0 0 0 322 81 2 13 526 323 1 312 2 0 0 0 0 80 2 323 324 325 90
00 0 0 0 0 3 5 0 0 0 FFTFFFFFFFFFFF9 1 79 16 325 BODY_RECIPE_200180 2 321 326 32
7 9000 0 0 0 0 3 5 0 0 0 FFTFFFFFFFFFFF9 1 82 1 322 1 79 24 327 BODY_IN_LIGHTWEI
GHT_PERM80 2 319 328 329 8004 0 0 0 0 3 5 0 0 0 FFTFFFFFFFFFFF2 3 83 1 320 1 79
 16 329 SDL/TYSA_DENSITY80 1 317 330 331 9000 1 1 1 1 1 1 1 1 0 FFTFFFFFFFFFFF1
 82 1 318 947993 79 10 331 BODY_MATCH80 2 315 332 333 9000 0 0 0 0 3 5 0 0 0 FFT
FFFFFFFFFFF9 1 82 1 316 47 79 30 333 LAST_BODY_MODIFYING_FEATURE_ID80 2 313 334
 335 9000 0 0 0 0 3 5 0 0 0 FFTFFFFFFFFFFF9 1 82 1 314 131 79 19 335 ENT_TIME_ST
AMP_200180 2 12 336 337 9000 0 0 0 0 3 5 0 0 0 FFTFFFFFFFFFFF9 1 82 1 14 101 79
 12 337 ATOM_ID_20011 0 
